<?xml version="1.0" standalone="no"?>
<!DOCTYPE svg PUBLIC "-//W3C//DTD SVG 20010904//EN"
 "http://www.w3.org/TR/2001/REC-SVG-20010904/DTD/svg10.dtd">
<svg version="1.0" xmlns="http://www.w3.org/2000/svg"
 width="830.000000pt" height="1280.000000pt" viewBox="0 0 830.000000 1280.000000"
 preserveAspectRatio="xMidYMid meet">
<metadata>
Created by potrace 1.15, written by Peter Selinger 2001-2017
</metadata>
<g transform="translate(0.000000,1280.000000) scale(0.100000,-0.100000)"
fill="#000000" stroke="none">
<path d="M374 12781 c-18 -10 -34 -25 -36 -32 -3 -10 -12 -7 -33 9 -32 25 -71
28 -119 8 -73 -31 -87 -111 -36 -212 24 -49 27 -60 15 -67 -24 -13 -45 -63
-45 -106 0 -51 50 -195 102 -291 105 -197 255 -342 450 -435 64 -31 82 -35
154 -35 150 0 273 60 318 155 21 44 32 187 18 238 -6 20 -7 37 -2 37 4 0 -14
24 -41 53 -66 71 -78 111 -50 169 29 60 73 91 137 96 47 4 55 2 78 -23 34 -37
44 -84 20 -102 -21 -15 -70 -17 -79 -3 -3 6 1 10 9 10 19 0 28 14 20 34 -14
37 -64 10 -64 -34 0 -35 17 -50 60 -50 76 0 103 60 62 140 -19 39 -77 65 -122
55 l-25 -5 24 20 c18 16 38 20 91 20 171 0 310 -151 221 -241 -16 -16 -37 -29
-46 -29 -26 0 -73 28 -85 51 -14 24 -4 62 9 40 10 -16 31 -6 31 14 0 23 -20
28 -41 9 -27 -24 -24 -58 9 -95 33 -37 82 -42 130 -13 52 30 63 76 37 142 -33
83 -194 153 -309 136 -47 -8 -47 -7 24 46 97 72 299 130 455 130 151 0 281
-45 368 -128 37 -35 61 -120 54 -187 -13 -128 -96 -205 -220 -205 -126 0 -226
64 -194 125 10 19 10 19 18 -3 5 -12 20 -27 34 -32 34 -13 107 -13 142 1 37
14 83 58 83 80 0 36 -24 70 -52 76 -21 4 -28 11 -28 28 0 13 -3 31 -6 40 -7
17 -54 45 -78 45 -24 0 -77 -51 -98 -94 -10 -23 -28 -57 -39 -76 -15 -26 -18
-45 -14 -75 14 -93 95 -156 212 -163 123 -8 215 49 269 166 l28 61 39 -35 c78
-66 145 -60 258 26 151 114 238 143 424 143 162 0 220 -31 201 -109 -7 -28
-43 -51 -58 -36 -6 6 0 12 16 16 25 6 37 26 16 26 -5 0 -10 -4 -10 -10 0 -5
-9 -10 -19 -10 -11 0 -21 -5 -23 -11 -2 -7 -13 -9 -26 -5 -26 9 -39 50 -22 71
13 16 35 21 26 6 -11 -17 6 -41 28 -41 12 0 29 8 38 19 15 17 14 19 -6 29 -55
27 -90 19 -106 -24 -12 -32 -4 -52 31 -69 59 -31 139 -7 139 41 0 16 11 16 55
-2 14 -5 10 2 -12 25 -61 61 -33 145 57 171 53 15 104 -3 209 -73 118 -79 150
-93 249 -107 112 -15 359 -11 373 6 21 26 36 15 43 -32 3 -25 20 -75 37 -111
l31 -65 55 7 c104 13 194 69 233 144 l18 36 110 12 c124 13 150 24 283 113
100 68 148 84 202 69 92 -25 122 -106 62 -169 -31 -32 -24 -40 13 -14 18 13
22 13 22 1 0 -8 9 -26 21 -41 16 -21 29 -26 63 -26 80 0 123 63 76 110 -20 20
-59 20 -86 -1 -6 -5 -14 -6 -17 -2 -4 3 -7 1 -7 -5 0 -7 5 -12 10 -12 6 0 10
-7 10 -16 0 -11 8 -14 28 -12 21 2 27 8 26 26 -1 37 30 23 34 -16 3 -26 -1
-34 -23 -44 -22 -10 -28 -9 -36 3 -7 11 -9 11 -9 -3 0 -36 -43 -17 -59 25 -17
44 -13 56 21 77 53 32 151 43 269 30 151 -18 182 -32 383 -175 38 -28 58 -35
95 -35 46 0 103 25 128 57 10 12 16 6 37 -40 34 -72 97 -132 159 -153 65 -22
157 -15 220 15 87 42 128 141 88 211 -11 19 -29 53 -39 76 -21 43 -74 94 -98
94 -24 0 -71 -28 -78 -45 -3 -9 -6 -28 -6 -41 0 -17 -6 -24 -19 -24 -22 0 -61
-44 -61 -70 0 -26 39 -71 76 -86 67 -28 171 -13 181 26 6 24 19 26 27 5 23
-60 -78 -125 -193 -125 -97 0 -164 37 -202 113 -44 86 -30 223 28 279 149 142
410 168 688 67 68 -25 162 -81 194 -115 3 -4 -13 -4 -35 0 -133 20 -301 -70
-320 -171 -18 -98 105 -166 177 -97 33 32 38 73 11 97 -21 19 -48 7 -39 -17 7
-19 27 -22 27 -4 0 9 3 9 11 1 17 -17 1 -52 -34 -74 -44 -26 -64 -24 -99 11
-27 27 -30 36 -25 71 7 56 47 102 118 138 51 25 74 31 129 31 50 0 74 -5 89
-17 22 -18 22 -18 -23 -20 -58 -2 -85 -17 -102 -58 -21 -52 -18 -101 8 -119
27 -19 89 -21 106 -4 15 15 15 61 0 76 -16 16 -45 15 -50 0 -7 -19 2 -38 18
-38 9 0 12 -4 9 -10 -8 -13 -51 -13 -77 1 -27 14 -18 63 19 101 63 66 203 8
227 -94 11 -46 -4 -82 -59 -141 -29 -31 -50 -57 -46 -57 4 0 3 -22 -3 -50 -7
-34 -7 -77 1 -135 8 -71 15 -92 40 -123 67 -83 163 -122 299 -122 70 0 88 4
152 35 110 53 189 110 282 205 96 98 162 200 222 346 60 145 61 236 5 282 -12
10 -10 21 15 68 49 99 35 180 -38 210 -46 19 -87 17 -116 -6 l-25 -19 -23 24
c-60 64 -176 27 -194 -61 -5 -23 -14 -32 -39 -40 -21 -6 -37 -20 -47 -41 -13
-29 -20 -33 -57 -33 -33 0 -46 -5 -62 -26 -35 -44 -28 -80 27 -134 48 -49 96
-70 159 -70 28 0 33 5 54 54 l22 54 49 -39 c40 -31 55 -38 76 -33 42 10 91 32
122 54 l29 20 15 -22 c9 -12 16 -42 16 -66 0 -50 -25 -116 -40 -107 -6 4 -9 1
-8 -5 5 -19 -48 -53 -81 -52 -38 1 -67 16 -87 48 -16 23 -15 26 2 45 35 39 85
52 54 14 -11 -13 -11 -19 3 -32 13 -13 19 -14 31 -3 21 17 20 53 -2 73 -28 25
-50 21 -88 -17 -31 -31 -33 -36 -23 -65 13 -38 72 -91 102 -91 12 0 41 9 65
20 48 22 53 15 17 -24 -54 -58 -179 -89 -264 -66 -51 14 -111 67 -111 99 0 30
26 77 45 85 29 11 70 7 93 -10 26 -18 29 -42 5 -40 -10 0 -18 -6 -18 -14 0 -8
9 -15 20 -15 15 0 21 8 23 31 4 41 -35 74 -86 74 -51 0 -102 -56 -102 -112 0
-35 6 -47 40 -79 32 -31 49 -39 95 -44 71 -9 169 13 236 54 l48 30 -16 -37
c-8 -20 -24 -55 -35 -76 -28 -54 -211 -234 -280 -275 -134 -78 -260 -109 -375
-91 -80 13 -123 42 -168 115 -27 44 -30 57 -30 131 0 77 2 85 31 121 17 21 45
46 62 56 l31 18 11 -40 c16 -59 59 -97 126 -111 31 -7 67 -9 82 -5 44 11 99
75 117 138 15 51 15 62 1 117 -35 134 -124 257 -249 341 -90 59 -145 49 -176
-34 -11 -28 -10 -28 23 7 42 45 76 47 117 7 33 -33 37 -65 12 -94 -17 -19 -17
-20 4 -8 15 8 23 22 25 49 l3 37 18 -30 c13 -22 16 -24 12 -7 -4 12 -2 22 2
22 14 0 78 -70 105 -115 58 -95 89 -235 52 -231 -9 0 -19 -5 -22 -13 -3 -10 1
-12 17 -8 25 6 27 -13 5 -58 l-14 -30 5 28 c4 18 1 27 -8 27 -7 0 -26 13 -41
29 -16 16 -41 35 -57 41 -16 7 -31 21 -34 31 -11 32 -68 25 -107 -13 l-33 -32
-5 55 c-6 68 -22 92 -109 167 -140 121 -287 203 -438 244 -63 17 -109 21 -233
22 l-155 1 -65 -35 c-77 -42 -163 -125 -181 -174 -14 -39 -19 -42 -52 -25
l-22 12 23 -25 c23 -25 32 -90 11 -85 -6 1 -14 -4 -16 -10 -3 -8 4 -13 17 -13
32 0 22 -30 -19 -57 -37 -25 -92 -30 -138 -12 -15 6 -71 39 -123 73 -123 82
-153 92 -296 106 -126 12 -218 4 -274 -24 -29 -14 -29 -13 -40 18 -19 59 -110
126 -170 126 -29 0 -73 -24 -155 -85 -98 -74 -179 -113 -261 -125 -109 -15
-134 -14 -134 10 0 11 -15 36 -32 56 -18 19 -43 46 -54 59 -14 15 -38 26 -68
30 -25 4 -49 11 -52 16 -3 5 -21 9 -40 9 l-34 0 0 49 c0 67 -13 97 -52 121
-50 30 -103 26 -139 -10 l-30 -30 -21 20 c-41 38 -136 20 -172 -32 -48 -69 16
-219 124 -290 24 -17 23 -17 -50 -17 -181 -1 -268 29 -424 143 -49 37 -103 68
-122 72 -72 13 -176 -56 -190 -126 l-6 -28 -47 21 c-84 38 -361 23 -455 -25
-22 -11 -79 -47 -126 -80 -88 -61 -132 -75 -193 -64 -55 10 -87 47 -87 99 0
37 6 50 33 76 23 23 26 30 12 25 -11 -4 -26 -12 -33 -17 -15 -12 -14 -13 -42
42 -33 66 -107 133 -193 176 l-76 38 -143 -6 c-260 -10 -440 -82 -652 -262
-87 -74 -110 -108 -116 -174 l-5 -53 -32 31 c-39 37 -98 44 -108 12 -3 -10
-18 -24 -34 -31 -16 -6 -41 -25 -57 -41 -15 -16 -34 -29 -41 -29 -9 0 -12 -9
-8 -27 l5 -28 -14 30 c-22 45 -20 64 5 58 16 -4 20 -2 17 8 -3 8 -13 13 -23
12 -29 -2 -15 90 27 178 37 78 125 184 134 161 4 -8 11 -6 23 9 16 20 17 20
13 -19 -3 -34 0 -42 20 -53 22 -12 23 -11 6 8 -26 29 -22 61 11 94 41 40 75
38 117 -7 33 -35 34 -35 23 -7 -31 83 -84 93 -176 33 -161 -106 -281 -312
-252 -437 13 -61 32 -96 69 -127 42 -35 69 -40 131 -27 71 15 104 42 126 101
l19 49 31 -18 c103 -63 126 -199 53 -314 -42 -66 -84 -94 -163 -107 -160 -25
-339 43 -501 192 -90 82 -148 157 -181 232 l-26 59 28 -19 c85 -56 174 -80
260 -69 44 5 61 14 93 44 34 33 40 44 40 80 0 36 -6 49 -34 77 -41 41 -89 46
-130 13 -34 -27 -34 -84 -1 -84 11 0 20 7 20 15 0 8 -8 14 -17 14 -25 -2 -22
22 4 40 30 21 81 20 107 -1 12 -10 24 -35 28 -55 5 -33 2 -41 -29 -72 -36 -36
-89 -56 -149 -56 -75 0 -180 47 -208 93 -18 28 -10 29 34 7 22 -11 49 -20 61
-20 30 0 84 47 101 88 14 33 13 36 -13 63 -36 38 -60 44 -89 25 -29 -19 -33
-57 -9 -76 12 -11 18 -10 31 3 14 13 14 19 3 32 -31 37 18 25 53 -13 15 -16
16 -24 7 -41 -15 -29 -53 -52 -88 -53 -34 -1 -96 38 -86 54 4 6 2 8 -3 5 -15
-10 -43 54 -43 98 0 20 7 49 15 66 l16 30 28 -20 c32 -23 71 -40 118 -51 34
-8 54 1 104 47 l25 23 23 -55 c21 -50 26 -55 55 -55 72 0 145 38 184 95 28 39
28 75 1 109 -16 21 -29 26 -62 26 -37 0 -44 4 -57 33 -10 21 -26 35 -47 41
-24 8 -33 17 -37 41 -14 74 -109 116 -172 76z m4014 -323 c23 -19 12 -29 -30
-26 -34 2 -42 7 -45 26 -3 22 -1 23 29 17 18 -4 39 -12 46 -17z m-3448 -238
c12 -8 9 -10 -12 -10 -16 0 -28 5 -28 10 0 13 20 13 40 0z m6470 0 c0 -5 -9
-10 -21 -10 -11 0 -17 5 -14 10 3 6 13 10 21 10 8 0 14 -4 14 -10z m-6472 -56
c26 -7 28 -30 8 -79 -15 -36 -45 -60 -87 -70 -25 -6 -26 -5 -25 37 1 41 0 43
-26 41 -36 -2 -44 24 -17 54 18 18 33 23 73 23 28 0 61 -3 74 -6z m6581 -18
c29 -31 23 -51 -15 -51 -28 0 -29 -2 -28 -43 1 -42 0 -43 -25 -37 -42 10 -72
34 -87 70 -30 72 -20 82 77 84 47 1 59 -3 78 -23z"/>
<path d="M4325 12460 c3 -5 8 -10 11 -10 2 0 4 5 4 10 0 6 -5 10 -11 10 -5 0
-7 -4 -4 -10z"/>
<path d="M1891 12567 c-17 -21 -3 -49 23 -45 15 2 21 10 21 28 0 28 -26 38
-44 17z"/>
<path d="M6374 12565 c-9 -23 3 -45 25 -45 23 0 35 28 20 46 -15 18 -38 18
-45 -1z"/>
<path d="M1987 12518 c-21 -11 -22 -31 -3 -47 20 -16 46 -3 46 24 0 27 -19 37
-43 23z"/>
<path d="M2277 12500 c-13 -25 -13 -31 -1 -41 8 -6 14 -22 14 -35 0 -17 6 -24
19 -24 26 0 48 27 33 42 -7 7 -12 24 -12 38 0 25 -16 50 -31 50 -4 0 -14 -13
-22 -30z"/>
<path d="M6005 12514 c-10 -11 -14 -25 -11 -40 4 -14 2 -24 -5 -24 -5 0 -9
-10 -7 -22 4 -29 48 -39 48 -11 0 10 7 28 15 41 14 19 14 24 -1 47 -19 30 -18
29 -39 9z"/>
<path d="M6293 12523 c-19 -7 -16 -50 3 -57 19 -7 44 10 44 30 0 16 -30 33
-47 27z"/>
<path d="M957 12514 c-13 -13 -7 -23 16 -26 l22 -3 -22 -22 c-15 -15 -18 -23
-9 -23 21 0 38 26 34 52 -3 22 -27 35 -41 22z"/>
<path d="M7314 12505 c-9 -23 12 -65 33 -65 17 1 17 1 1 11 -22 13 -23 39 -2
39 20 0 13 24 -9 28 -10 2 -20 -4 -23 -13z"/>
<path d="M3226 12472 c-3 -6 -1 -14 5 -17 15 -10 25 3 12 16 -7 7 -13 7 -17 1z"/>
<path d="M5077 12474 c-8 -8 1 -24 14 -24 5 0 9 7 9 15 0 15 -12 20 -23 9z"/>
<path d="M3190 12445 c0 -9 5 -15 11 -13 6 2 11 8 11 13 0 5 -5 11 -11 13 -6
2 -11 -4 -11 -13z"/>
<path d="M5112 12449 c2 -6 8 -10 13 -10 5 0 11 4 13 10 2 6 -4 11 -13 11 -9
0 -15 -5 -13 -11z"/>
<path d="M2025 12440 c-12 -20 6 -51 28 -48 31 4 31 52 0 56 -11 2 -24 -2 -28
-8z"/>
<path d="M3239 12429 c-11 -21 -10 -21 11 -6 26 18 46 12 90 -28 30 -27 71
-38 101 -27 19 7 13 10 -31 15 -41 5 -61 14 -85 37 -36 35 -70 39 -86 9z"/>
<path d="M4998 12418 c-26 -21 -51 -32 -90 -37 -49 -7 -51 -8 -22 -14 38 -10
77 4 121 43 40 36 47 37 67 8 11 -16 16 -18 16 -7 0 20 -20 39 -39 38 -9 0
-32 -14 -53 -31z"/>
<path d="M6234 12436 c-10 -26 4 -48 28 -44 17 2 23 10 23 28 0 18 -6 26 -23
28 -13 2 -25 -3 -28 -12z"/>
<path d="M865 12406 c5 -47 39 -86 75 -86 30 0 60 27 60 54 0 24 -18 56 -32
56 -6 0 -3 -9 7 -20 24 -27 13 -68 -21 -76 -32 -8 -72 28 -85 77 l-9 34 5 -39z"/>
<path d="M7440 12415 c0 -14 -13 -39 -28 -56 -23 -26 -33 -31 -55 -25 -35 8
-46 49 -22 76 10 11 13 20 7 20 -14 0 -32 -32 -32 -58 0 -26 31 -52 62 -52 34
0 78 51 78 91 0 16 -2 29 -5 29 -3 0 -5 -11 -5 -25z"/>
<path d="M935 12421 c-3 -5 -1 -12 5 -16 5 -3 10 1 10 9 0 18 -6 21 -15 7z"/>
<path d="M3356 12415 c4 -8 8 -15 10 -15 2 0 4 7 4 15 0 8 -4 15 -10 15 -5 0
-7 -7 -4 -15z"/>
<path d="M4955 12421 c-3 -5 -1 -12 4 -15 5 -3 11 1 15 9 6 16 -9 21 -19 6z"/>
<path d="M7360 12414 c0 -8 5 -12 10 -9 6 4 8 11 5 16 -9 14 -15 11 -15 -7z"/>
<path d="M3175 12410 c3 -5 10 -10 16 -10 5 0 9 5 9 10 0 6 -7 10 -16 10 -8 0
-12 -4 -9 -10z"/>
<path d="M5120 12410 c0 -5 7 -10 15 -10 8 0 15 5 15 10 0 6 -7 10 -15 10 -8
0 -15 -4 -15 -10z"/>
<path d="M2262 12399 c2 -7 10 -15 17 -17 8 -3 12 1 9 9 -2 7 -10 15 -17 17
-8 3 -12 -1 -9 -9z"/>
<path d="M6040 12395 c0 -9 6 -12 15 -9 11 5 13 2 9 -10 -4 -11 -1 -16 10 -16
21 0 20 13 -2 33 -23 21 -32 21 -32 2z"/>
<path d="M3185 12379 c-4 -6 -5 -13 -2 -16 7 -7 27 6 27 18 0 12 -17 12 -25
-2z"/>
<path d="M5120 12375 c0 -8 -7 -15 -15 -15 -8 0 -15 -4 -15 -9 0 -20 16 -18
38 4 18 19 19 24 7 29 -9 3 -15 0 -15 -9z"/>
<path d="M2230 12370 c0 -5 7 -10 15 -10 8 0 15 5 15 10 0 6 -7 10 -15 10 -8
0 -15 -4 -15 -10z"/>
<path d="M2390 12345 c-46 -39 -74 -44 -89 -17 -10 16 -10 16 -11 0 0 -10 9
-22 21 -28 21 -12 28 -9 91 42 15 12 47 25 70 29 l43 6 -42 2 c-33 1 -49 -5
-83 -34z"/>
<path d="M5853 12370 c32 -6 62 -20 92 -44 24 -20 48 -36 53 -36 12 0 47 39
40 45 -3 3 -11 -1 -18 -10 -17 -21 -44 -19 -66 6 -29 32 -69 49 -111 48 -37
-1 -37 -2 10 -9z"/>
<path d="M2052 12358 c-7 -7 -12 -18 -12 -25 0 -15 30 -32 48 -26 17 7 15 50
-4 57 -20 8 -18 8 -32 -6z"/>
<path d="M6223 12363 c-19 -7 -16 -50 4 -57 24 -10 51 20 37 41 -12 19 -23 24
-41 16z"/>
<path d="M3207 12354 c-8 -8 1 -24 14 -24 5 0 9 7 9 15 0 15 -12 20 -23 9z"/>
<path d="M2230 12336 c0 -9 7 -16 16 -16 9 0 14 5 12 12 -6 18 -28 21 -28 4z"/>
<path d="M3240 12332 c0 -10 -7 -28 -16 -41 -14 -19 -14 -27 -4 -47 8 -13 19
-24 25 -24 20 0 38 28 32 50 -3 10 1 25 9 31 12 10 12 15 -2 30 -22 24 -44 24
-44 1z"/>
<path d="M5045 12337 c-13 -10 -16 -19 -10 -33 5 -10 9 -26 10 -36 6 -52 42
-66 61 -23 9 19 9 27 -1 35 -8 6 -15 23 -17 37 -4 32 -17 38 -43 20z"/>
<path d="M2406 12324 c-4 -10 -1 -14 6 -12 15 5 23 28 10 28 -5 0 -13 -7 -16
-16z"/>
<path d="M5900 12331 c0 -6 4 -13 10 -16 6 -3 7 1 4 9 -7 18 -14 21 -14 7z"/>
<path d="M2245 12301 c-6 -11 9 -23 19 -14 9 9 7 23 -3 23 -6 0 -12 -4 -16 -9z"/>
<path d="M5230 12301 c0 -10 19 -25 25 -20 1 2 -3 10 -11 17 -8 7 -14 8 -14 3z"/>
<path d="M6043 12296 c-25 -12 -29 -21 -13 -31 6 -3 13 0 16 9 3 8 12 12 20 9
8 -3 14 1 14 11 0 18 -5 18 -37 2z"/>
<path d="M2280 12275 c0 -9 6 -12 15 -9 8 4 15 10 15 15 0 5 -7 9 -15 9 -8 0
-15 -7 -15 -15z"/>
<path d="M1004 11866 c-10 -26 4 -48 28 -44 17 2 23 10 23 28 0 18 -6 26 -23
28 -13 2 -25 -3 -28 -12z"/>
<path d="M7254 11866 c-10 -26 4 -48 28 -44 17 2 23 10 23 28 0 18 -6 26 -23
28 -13 2 -25 -3 -28 -12z"/>
<path d="M92 11858 c-33 -16 -40 -57 -14 -79 12 -9 22 -24 22 -32 0 -7 9 -22
19 -31 38 -34 91 7 100 77 6 40 8 42 42 45 30 3 41 -2 58 -24 12 -15 21 -41
21 -60 0 -28 -6 -38 -32 -54 -36 -22 -34 -25 7 -10 14 5 32 24 40 42 13 31 14
31 15 8 0 -19 3 -21 9 -11 22 35 71 -122 71 -228 0 -73 -27 -168 -43 -152 -15
15 -27 14 -27 -3 0 -8 8 -16 18 -18 14 -3 9 -12 -25 -48 -40 -43 -44 -45 -95
-45 -100 1 -154 70 -128 163 12 46 44 86 63 79 6 -2 12 -21 14 -42 1 -21 9
-45 17 -53 20 -20 89 -19 121 2 33 22 31 66 -2 81 -13 5 -23 17 -23 25 0 41
-55 53 -85 20 -10 -11 -30 -20 -45 -20 -32 0 -73 -41 -90 -90 -17 -48 1 -108
42 -149 17 -17 34 -31 37 -31 3 0 12 -4 20 -9 11 -7 6 -16 -21 -44 -20 -19
-41 -50 -47 -68 l-12 -34 38 37 c49 47 73 58 122 58 103 0 171 -144 127 -268
-8 -23 -49 -90 -90 -150 -119 -172 -143 -230 -162 -397 -25 -218 -14 -352 41
-477 6 -14 2 -18 -17 -18 -59 0 -154 -89 -183 -171 -33 -92 -20 -133 91 -281
83 -111 151 -229 172 -298 6 -19 18 -99 27 -177 13 -109 14 -158 6 -215 -27
-195 -76 -245 -185 -191 -28 14 -28 17 -23 73 7 84 19 100 70 100 47 0 67 -13
67 -43 0 -16 -3 -17 -15 -7 -8 7 -25 10 -38 6 -34 -8 -32 -65 3 -83 l25 -13
-22 -6 c-24 -7 -30 -19 -14 -28 5 -3 11 1 15 9 3 8 12 12 21 9 10 -4 15 0 15
14 0 11 4 22 8 24 5 2 12 22 16 46 6 39 3 46 -23 73 -57 57 -121 32 -147 -57
-24 -85 -3 -136 70 -163 21 -9 26 -14 18 -24 -6 -7 -16 -26 -22 -42 -11 -29
-10 -28 32 13 73 71 143 74 205 10 40 -41 53 -76 53 -137 0 -71 -14 -102 -116
-256 -51 -77 -102 -164 -113 -193 -52 -133 -65 -476 -22 -597 12 -33 22 -64
24 -68 1 -5 -15 -14 -37 -22 -89 -31 -163 -124 -173 -216 -7 -69 8 -105 85
-207 161 -210 193 -284 217 -494 18 -161 12 -248 -23 -349 -24 -70 -56 -94
-107 -80 -72 20 -89 56 -65 143 13 44 20 50 66 50 41 0 64 -16 64 -45 0 -18
-1 -19 -18 -4 -14 12 -21 13 -38 4 -30 -17 -27 -67 6 -84 l25 -13 -22 -6 c-13
-4 -23 -10 -23 -15 0 -12 17 -11 25 1 3 5 12 7 20 3 10 -3 15 1 15 15 0 11 4
22 8 24 5 1 12 22 16 46 6 39 3 46 -23 73 -70 70 -152 13 -155 -109 -1 -48 2
-56 31 -82 37 -33 94 -47 128 -32 34 16 72 77 90 147 19 76 20 273 0 419 -18
132 -40 183 -158 359 -48 70 -91 146 -98 170 -32 119 40 247 139 247 42 0 67
-13 115 -58 42 -41 45 -38 17 18 -25 49 -25 50 1 50 12 0 36 15 55 34 28 28
34 41 34 77 0 57 -33 125 -68 137 -30 10 -66 1 -94 -25 -22 -20 -23 -112 -2
-120 8 -3 14 -15 14 -26 0 -21 0 -21 20 1 12 12 25 22 29 22 5 0 11 18 13 39
2 22 0 37 -5 34 -4 -2 -15 1 -23 8 -11 9 -18 8 -34 -6 -22 -20 -27 -7 -10 25
19 35 102 36 115 2 16 -42 24 -115 15 -132 -12 -22 -60 -40 -106 -40 -43 0
-58 22 -84 125 -24 93 -25 196 -6 350 22 167 54 239 189 420 41 55 81 114 91
132 20 39 21 122 2 168 -22 52 -102 132 -151 150 l-42 17 20 51 c45 115 29
494 -26 618 -14 31 -66 118 -116 193 -49 75 -95 155 -102 179 -31 117 42 247
139 247 42 0 67 -13 115 -58 42 -41 45 -38 17 18 l-20 40 33 14 c67 28 90 85
67 165 -22 76 -88 104 -143 60 -23 -17 -26 -27 -26 -69 1 -29 7 -55 15 -61 8
-6 14 -18 14 -27 0 -12 5 -11 20 6 12 12 25 22 29 22 5 0 11 18 13 39 2 22 0
37 -5 34 -4 -2 -15 1 -23 8 -11 9 -18 8 -34 -6 -16 -15 -20 -15 -20 -3 0 45
70 73 108 41 23 -19 46 -110 36 -138 -15 -39 -121 -62 -150 -34 -27 28 -56
133 -62 223 -6 102 12 298 35 371 23 74 74 164 163 285 44 59 87 121 95 136
21 41 19 129 -5 179 -22 46 -80 106 -124 129 l-28 14 28 15 c69 36 110 105
120 201 l7 67 26 -25 c15 -14 41 -30 58 -37 28 -9 38 -7 72 12 22 12 47 36 57
54 16 30 16 33 -1 63 -33 56 -88 62 -115 13 -7 -15 -5 -25 9 -42 22 -27 45
-17 38 18 -3 18 0 23 11 21 23 -5 54 -52 46 -71 -9 -23 -56 -47 -93 -47 -42 0
-96 53 -111 110 -21 83 -61 175 -106 242 -48 74 -76 89 -127 70 -20 -7 -36 -8
-48 -2 -23 13 -78 12 -107 -2z"/>
<path d="M7981 11851 c-31 -31 -88 -122 -107 -173 -10 -23 -20 -47 -24 -53 -4
-5 -11 -28 -15 -50 -9 -54 -29 -90 -64 -114 -41 -30 -84 -27 -123 8 l-33 29
21 29 c28 37 53 43 47 10 -6 -30 20 -43 42 -20 21 20 16 42 -16 65 -21 16 -30
17 -51 8 -24 -11 -58 -57 -58 -78 0 -18 51 -72 82 -88 35 -18 81 -7 121 30
l25 23 6 -61 c9 -78 38 -137 87 -180 l40 -34 -30 -10 c-44 -15 -116 -86 -140
-137 -29 -61 -28 -138 2 -190 13 -22 58 -87 100 -143 43 -57 96 -142 118 -188
38 -78 42 -96 59 -242 18 -166 15 -245 -15 -346 -22 -77 -39 -96 -86 -96 -48
0 -96 23 -101 47 -8 39 12 118 34 136 38 32 108 4 108 -41 0 -12 -4 -12 -20 3
-16 14 -23 15 -34 6 -8 -7 -19 -10 -23 -8 -5 3 -7 -12 -5 -34 2 -21 8 -39 13
-39 4 0 17 -9 28 -21 12 -13 21 -17 26 -10 3 6 3 11 -1 11 -4 0 0 8 8 18 8 9
16 38 17 64 1 39 -3 50 -25 67 -56 44 -122 16 -144 -60 -18 -60 -12 -96 20
-132 29 -33 29 -34 10 -53 -11 -10 -26 -37 -35 -59 l-16 -40 28 33 c80 94 171
96 240 6 21 -29 28 -50 31 -99 2 -35 -1 -79 -7 -98 -7 -19 -54 -98 -106 -176
-51 -78 -103 -165 -114 -195 -48 -130 -63 -460 -26 -584 21 -69 76 -132 116
-132 41 0 93 24 113 51 44 64 -5 209 -71 209 -36 0 -82 -28 -88 -53 -7 -35 -1
-85 13 -99 6 -6 12 -18 12 -25 0 -7 5 -13 10 -13 6 0 10 6 10 14 0 7 9 16 20
19 15 4 20 14 20 41 0 30 -4 37 -26 42 -17 4 -29 2 -35 -7 -4 -7 -11 -10 -15
-7 -4 4 1 19 10 33 13 20 25 25 55 25 48 0 58 -12 74 -85 11 -56 11 -58 -15
-80 -14 -12 -43 -26 -63 -29 -55 -11 -80 11 -105 91 -30 97 -35 214 -16 373
15 123 20 143 61 226 24 50 81 140 126 200 44 60 87 121 95 136 18 35 18 129
0 172 -18 43 -81 113 -119 132 -27 15 -28 17 -12 34 59 66 80 266 51 493 -9
70 -26 151 -37 180 -11 29 -62 115 -113 192 -51 77 -98 155 -104 174 -41 119
30 261 129 261 49 0 73 -11 122 -58 l38 -37 -12 33 c-6 17 -23 45 -39 62 l-28
29 53 30 c54 31 95 90 95 139 0 58 -56 132 -100 132 -15 0 -35 9 -45 20 -31
34 -85 21 -85 -22 0 -10 -6 -18 -14 -18 -22 0 -39 -28 -32 -53 7 -30 47 -51
93 -50 45 1 63 20 66 69 3 37 6 40 37 36 16 -3 50 -82 50 -118 0 -73 -84 -135
-164 -120 -42 8 -122 89 -93 94 9 2 17 10 17 18 0 17 -12 18 -27 3 -16 -16
-43 78 -43 146 0 109 48 269 71 234 6 -10 9 -8 9 11 1 23 2 23 15 -8 8 -18 26
-37 40 -42 41 -15 43 -12 8 10 -27 16 -33 26 -33 54 0 19 9 45 21 60 17 22 28
27 58 24 34 -3 36 -5 42 -45 9 -70 62 -111 100 -77 10 9 19 24 19 33 0 9 9 22
20 29 11 7 20 23 20 37 0 35 -50 59 -104 50 -48 -8 -58 -8 -108 1 -29 5 -40 2
-57 -15z"/>
<path d="M952 11808 c-16 -16 -15 -33 3 -48 12 -10 18 -10 30 0 20 16 19 46
-1 54 -20 8 -18 8 -32 -6z"/>
<path d="M7322 11808 c-16 -16 -15 -33 4 -48 22 -19 54 12 38 37 -14 22 -27
26 -42 11z"/>
<path d="M257 11756 c-15 -15 -12 -66 4 -66 5 0 6 12 3 26 -6 24 -5 26 16 19
17 -6 21 -3 18 11 -4 24 -22 28 -41 10z"/>
<path d="M764 11755 c-9 -23 3 -45 25 -45 25 0 34 14 26 40 -7 23 -43 27 -51
5z"/>
<path d="M863 11754 c-8 -21 19 -46 40 -38 9 3 17 17 17 30 0 19 -5 24 -25 24
-14 0 -28 -7 -32 -16z"/>
<path d="M7390 11746 c0 -29 28 -42 48 -22 20 20 8 46 -23 46 -20 0 -25 -5
-25 -24z"/>
<path d="M7500 11756 c-18 -22 -5 -48 22 -44 17 2 23 10 23 28 0 29 -26 38
-45 16z"/>
<path d="M8017 11763 c-16 -16 -7 -34 14 -28 19 6 21 4 17 -19 -3 -14 -1 -26
3 -26 5 0 9 4 9 9 0 5 3 16 6 24 3 8 -2 22 -11 31 -18 17 -28 20 -38 9z"/>
<path d="M220 11660 c-11 -11 -20 -29 -20 -40 0 -27 35 -60 64 -60 13 0 35 9
50 21 28 22 61 77 52 87 -3 3 -6 0 -6 -6 0 -6 -14 -27 -30 -45 -37 -42 -75
-52 -101 -26 -26 26 -24 44 7 68 15 12 22 21 15 21 -6 0 -20 -9 -31 -20z"/>
<path d="M8074 11659 c31 -24 33 -42 7 -68 -26 -26 -64 -16 -101 26 -16 18
-30 39 -30 45 0 6 -3 9 -6 6 -9 -10 24 -65 52 -87 15 -12 37 -21 50 -21 29 0
64 33 64 60 0 22 -33 60 -51 60 -7 0 0 -9 15 -21z"/>
<path d="M266 11661 c-4 -7 -5 -15 -2 -18 9 -9 19 4 14 18 -4 11 -6 11 -12 0z"/>
<path d="M8030 11656 c0 -9 5 -16 10 -16 6 0 10 4 10 9 0 6 -4 13 -10 16 -5 3
-10 -1 -10 -9z"/>
<path d="M340 11295 c0 -8 7 -15 15 -15 8 0 15 7 15 15 0 8 -7 15 -15 15 -8 0
-15 -7 -15 -15z"/>
<path d="M7940 11295 c0 -8 7 -15 15 -15 8 0 15 7 15 15 0 8 -7 15 -15 15 -8
0 -15 -7 -15 -15z"/>
<path d="M255 11280 c-4 -6 -3 -16 3 -22 6 -6 12 -6 17 2 4 6 3 16 -3 22 -6 6
-12 6 -17 -2z"/>
<path d="M295 11281 c-3 -5 -1 -12 5 -16 12 -7 30 2 30 16 0 12 -27 12 -35 0z"/>
<path d="M7985 11281 c-7 -12 12 -24 25 -16 11 7 4 25 -10 25 -5 0 -11 -4 -15
-9z"/>
<path d="M8035 11280 c-7 -12 2 -30 16 -30 5 0 9 9 9 20 0 21 -15 27 -25 10z"/>
<path d="M294 11115 c-8 -19 9 -40 24 -31 13 8 9 39 -6 44 -7 2 -15 -4 -18
-13z"/>
<path d="M7948 11124 c-7 -7 2 -44 11 -44 18 0 30 24 20 37 -12 14 -22 16 -31
7z"/>
<path d="M235 11110 c-9 -15 4 -30 27 -30 14 0 18 5 14 16 -3 9 -6 18 -6 20 0
8 -29 4 -35 -6z"/>
<path d="M7996 11105 c-3 -9 1 -18 10 -22 19 -7 39 11 30 26 -10 16 -33 13
-40 -4z"/>
<path d="M344 11095 c-9 -23 14 -45 26 -25 5 8 8 19 7 24 -6 17 -27 18 -33 1z"/>
<path d="M7896 11101 c-9 -14 5 -42 18 -38 15 5 14 39 -1 44 -6 2 -14 0 -17
-6z"/>
<path d="M200 11060 c0 -14 7 -20 21 -20 15 0 19 4 15 16 -3 9 -6 18 -6 20 0
2 -7 4 -15 4 -8 0 -15 -9 -15 -20z"/>
<path d="M8036 11064 c-9 -23 -8 -24 12 -24 24 0 32 8 25 26 -7 19 -29 18 -37
-2z"/>
<path d="M58 11053 c-16 -8 -28 -20 -28 -28 0 -31 63 -66 83 -46 8 8 17 5 34
-11 19 -18 25 -19 38 -8 47 39 39 73 -17 76 -17 1 -35 9 -40 18 -11 19 -33 19
-70 -1z"/>
<path d="M8142 11054 c-5 -9 -23 -17 -40 -18 -56 -3 -64 -37 -17 -76 13 -11
19 -10 38 8 18 17 26 19 35 10 9 -9 20 -8 47 5 45 21 46 50 3 71 -39 20 -55
20 -66 0z"/>
<path d="M371 11047 c-6 -8 -6 -18 -1 -27 7 -11 11 -11 24 -1 9 8 16 17 16 21
0 14 -28 19 -39 7z"/>
<path d="M7869 11049 c-12 -7 -11 -11 4 -26 15 -16 19 -16 27 -3 5 8 10 18 10
21 0 12 -27 17 -41 8z"/>
<path d="M313 11024 c40 -22 36 -61 -13 -116 -46 -53 -60 -85 -59 -136 1 -70
18 -82 18 -14 1 35 5 61 10 58 5 -4 7 3 4 14 -4 13 10 38 46 81 28 33 51 64
51 69 0 19 -44 60 -63 60 -20 -1 -20 -2 6 -16z"/>
<path d="M7921 11014 c-12 -15 -21 -30 -21 -34 0 -5 23 -36 51 -69 36 -43 50
-68 46 -81 -3 -11 -1 -18 4 -14 5 3 9 -23 9 -58 0 -44 3 -59 10 -48 13 21 12
107 -2 133 -6 12 -28 42 -50 66 -47 54 -51 93 -10 115 25 14 25 15 5 16 -12 0
-31 -12 -42 -26z"/>
<path d="M320 10877 c0 -10 -4 -15 -10 -12 -5 3 -10 -1 -10 -9 0 -19 26 -21
33 -3 3 8 1 20 -4 28 -7 11 -9 10 -9 -4z"/>
<path d="M7939 10880 c-3 -8 -4 -21 -2 -27 7 -18 33 -16 33 3 0 8 -4 13 -9 9
-5 -3 -11 3 -13 12 -3 15 -5 15 -9 3z"/>
<path d="M365 9950 c3 -5 10 -10 16 -10 5 0 9 5 9 10 0 6 -7 10 -16 10 -8 0
-12 -4 -9 -10z"/>
<path d="M7880 9950 c0 -5 4 -10 9 -10 6 0 13 5 16 10 3 6 -1 10 -9 10 -9 0
-16 -4 -16 -10z"/>
<path d="M357 9918 c-7 -21 -7 -28 1 -27 4 1 6 5 5 10 -2 5 4 9 12 9 8 0 15 5
15 10 0 14 -27 12 -33 -2z"/>
<path d="M7880 9920 c0 -5 7 -10 15 -10 8 0 14 -3 13 -7 -2 -5 0 -9 5 -10 8
-3 9 1 1 22 -7 17 -34 21 -34 5z"/>
<path d="M310 9880 c0 -5 5 -10 10 -10 6 0 10 5 10 10 0 6 -4 10 -10 10 -5 0
-10 -4 -10 -10z"/>
<path d="M7940 9880 c0 -5 5 -10 10 -10 6 0 10 5 10 10 0 6 -4 10 -10 10 -5 0
-10 -4 -10 -10z"/>
<path d="M187 9773 c-4 -3 -7 -15 -7 -25 0 -21 25 -24 33 -4 6 16 -16 40 -26
29z"/>
<path d="M7991 9771 c-15 -10 -8 -41 9 -41 15 0 25 29 14 40 -5 5 -15 5 -23 1z"/>
<path d="M236 9753 c-4 -9 -3 -20 1 -24 13 -13 37 7 30 25 -8 21 -23 20 -31
-1z"/>
<path d="M7931 9756 c-8 -10 -8 -16 2 -24 17 -15 39 0 31 21 -8 21 -18 22 -33
3z"/>
<path d="M124 9734 c3 -9 6 -18 6 -20 0 -2 7 -4 15 -4 8 0 15 9 15 20 0 14 -7
20 -21 20 -15 0 -19 -4 -15 -16z"/>
<path d="M8032 9733 c2 -10 10 -18 18 -18 8 0 16 8 18 18 2 12 -3 17 -18 17
-15 0 -20 -5 -18 -17z"/>
<path d="M266 9715 c-3 -9 1 -18 10 -22 19 -7 39 11 30 26 -10 16 -33 13 -40
-4z"/>
<path d="M7897 9723 c-14 -13 -6 -33 13 -33 22 0 23 1 14 24 -7 17 -16 20 -27
9z"/>
<path d="M375 9705 c-8 -13 -29 -20 -77 -24 -15 -2 -8 -48 10 -64 24 -22 39
-21 54 2 9 15 15 17 30 7 14 -8 24 -8 46 4 40 23 40 54 1 74 -40 20 -51 20
-64 1z"/>
<path d="M7770 9710 c0 -5 -9 -10 -19 -10 -24 0 -34 -25 -21 -51 12 -22 50
-34 78 -25 11 4 24 0 32 -9 18 -22 37 -18 57 11 22 34 8 56 -36 59 -19 2 -38
10 -43 19 -10 17 -48 22 -48 6z"/>
<path d="M102 9683 c2 -10 10 -18 18 -18 8 0 16 8 18 18 2 12 -3 17 -18 17
-15 0 -20 -5 -18 -17z"/>
<path d="M8060 9680 c0 -24 25 -27 34 -4 9 23 8 24 -14 24 -13 0 -20 -7 -20
-20z"/>
<path d="M160 9670 c-30 -30 -24 -57 25 -113 32 -36 45 -59 42 -74 -2 -12 1
-21 6 -20 6 1 11 -21 11 -55 1 -31 4 -54 9 -51 4 2 7 30 7 61 0 59 -5 69 -67
152 -18 24 -33 51 -33 61 0 21 38 51 53 42 6 -3 7 -1 3 5 -11 18 -34 14 -56
-8z"/>
<path d="M7984 9678 c-4 -7 -3 -8 4 -4 6 4 20 -2 31 -13 17 -17 19 -25 10 -48
-6 -16 -23 -41 -38 -58 -55 -58 -75 -133 -51 -190 6 -14 9 -1 9 43 1 44 4 61
12 56 7 -4 9 0 5 14 -5 14 1 29 20 49 45 47 74 89 74 105 0 17 -41 58 -58 58
-6 0 -14 -5 -18 -12z"/>
<path d="M171 9513 c-1 -24 22 -32 35 -11 5 7 2 9 -9 5 -10 -4 -17 0 -20 11
-3 12 -5 11 -6 -5z"/>
<path d="M8015 9520 c3 -5 -1 -10 -9 -10 -9 0 -16 -5 -16 -11 0 -6 8 -9 17 -7
20 4 31 38 13 38 -6 0 -8 -4 -5 -10z"/>
<path d="M110 8600 c0 -5 7 -10 15 -10 8 0 15 5 15 10 0 6 -7 10 -15 10 -8 0
-15 -4 -15 -10z"/>
<path d="M8060 8600 c0 -5 5 -10 10 -10 6 0 10 5 10 10 0 6 -4 10 -10 10 -5 0
-10 -4 -10 -10z"/>
<path d="M115 8571 c-6 -11 9 -23 19 -14 9 9 7 23 -3 23 -6 0 -12 -4 -16 -9z"/>
<path d="M8056 8571 c-3 -5 1 -11 9 -15 9 -3 15 0 15 9 0 16 -16 20 -24 6z"/>
<path d="M140 8540 c0 -5 5 -10 10 -10 6 0 10 5 10 10 0 6 -4 10 -10 10 -5 0
-10 -4 -10 -10z"/>
<path d="M8036 8535 c4 -8 10 -12 15 -9 14 8 10 24 -6 24 -9 0 -12 -6 -9 -15z"/>
<path d="M8000 8524 c0 -8 5 -12 10 -9 6 3 10 10 10 16 0 5 -4 9 -10 9 -5 0
-10 -7 -10 -16z"/>
<path d="M7942 8437 c-48 -15 -126 -89 -151 -142 -29 -61 -28 -138 2 -190 13
-22 58 -87 101 -145 43 -58 96 -142 118 -188 37 -76 41 -94 58 -240 18 -166
15 -245 -15 -346 -22 -77 -39 -96 -86 -96 -48 0 -99 24 -100 48 -4 63 15 128
42 143 40 21 99 -9 99 -52 0 -8 -6 -7 -18 4 -12 11 -22 13 -35 6 -9 -6 -21 -8
-25 -5 -4 2 -6 -13 -4 -35 2 -21 8 -39 13 -39 4 0 17 -9 28 -21 12 -13 21 -17
26 -10 3 6 3 11 -1 11 -4 0 0 8 8 18 8 9 16 38 17 64 1 39 -3 50 -25 67 -56
44 -122 16 -144 -60 -18 -60 -12 -96 20 -132 29 -33 29 -34 10 -53 -11 -10
-26 -37 -35 -58 l-17 -40 45 47 c84 86 183 72 237 -34 26 -50 26 -139 1 -194
-10 -22 -57 -97 -104 -167 -47 -70 -94 -151 -105 -181 -11 -29 -28 -116 -37
-193 -27 -217 -9 -398 45 -467 27 -34 26 -39 -16 -62 -19 -10 -49 -36 -65 -56
-81 -102 -79 -210 5 -313 58 -72 143 -199 174 -261 40 -80 48 -116 66 -275 16
-154 6 -265 -33 -356 -21 -48 -25 -52 -64 -57 -45 -6 -90 11 -106 41 -9 17 -1
85 14 125 15 36 95 33 119 -5 13 -21 1 -35 -17 -20 -7 6 -23 9 -35 5 -34 -8
-29 -57 8 -95 26 -26 30 -27 30 -10 0 11 6 22 14 25 21 8 20 97 -2 120 -27 30
-62 40 -94 26 -37 -15 -58 -57 -65 -125 -5 -49 -4 -55 25 -83 17 -17 26 -33
21 -37 -12 -7 -49 -79 -49 -94 0 -7 12 2 26 20 104 123 264 49 264 -123 0 -74
-12 -102 -105 -239 -130 -191 -144 -226 -166 -443 -20 -204 1 -361 61 -436
l29 -36 -30 -22 c-16 -12 -42 -45 -59 -74 -24 -41 -30 -64 -30 -110 0 -70 11
-93 102 -214 143 -191 178 -275 199 -472 26 -245 -19 -431 -103 -431 -40 0
-96 27 -103 51 -8 23 4 86 22 122 11 22 20 27 48 27 34 0 75 -28 75 -50 0 -13
-13 -13 -27 1 -7 7 -19 8 -30 4 -10 -5 -20 -8 -23 -7 -3 0 -4 -17 -2 -39 3
-23 9 -39 17 -39 7 0 20 -10 28 -23 l16 -22 0 21 c1 12 7 24 15 27 8 3 14 23
14 56 1 42 -2 53 -24 70 -57 45 -105 34 -134 -31 -44 -97 -14 -175 77 -197 41
-11 49 -10 72 7 89 65 119 250 86 520 -22 179 -33 205 -173 415 -85 127 -92
144 -92 215 1 99 48 169 126 186 42 9 81 -8 131 -57 l43 -41 -13 34 c-6 18
-27 49 -45 69 -28 29 -32 39 -23 53 26 42 0 167 -40 188 -32 18 -79 11 -104
-14 -19 -19 -24 -34 -23 -71 0 -30 6 -49 14 -52 8 -3 14 -15 14 -26 0 -21 0
-21 20 1 12 12 25 22 29 22 5 0 11 18 13 39 2 22 0 37 -5 34 -4 -2 -15 1 -24
8 -13 11 -17 10 -28 -4 -17 -23 -30 -5 -16 22 12 22 51 34 86 25 20 -5 28 -17
41 -61 27 -91 10 -116 -83 -129 l-51 -6 -22 42 c-28 55 -50 159 -50 240 0 94
26 297 45 350 22 64 85 165 171 280 40 54 78 110 84 125 16 42 11 126 -9 172
-21 44 -90 118 -122 128 -18 6 -17 8 6 43 54 82 69 258 41 482 -19 151 -41
206 -143 358 -107 158 -123 192 -123 263 0 78 32 136 92 168 42 23 49 24 87
12 25 -7 58 -29 83 -54 l40 -42 -16 40 c-9 22 -26 49 -37 61 l-20 21 30 31
c26 26 31 38 31 79 0 117 -91 182 -160 113 -23 -23 -24 -104 -3 -122 7 -6 13
-17 13 -24 0 -8 5 -14 10 -14 6 0 10 6 10 14 0 7 9 16 20 19 15 4 20 14 20 41
0 30 -4 37 -26 42 -17 4 -29 2 -35 -7 -4 -7 -11 -10 -15 -7 -4 4 1 19 10 33
13 20 25 25 55 25 48 0 58 -12 73 -85 11 -57 11 -59 -14 -80 -15 -12 -43 -26
-63 -29 -55 -11 -80 11 -105 91 -30 97 -35 214 -16 373 14 112 22 147 50 207
37 78 93 164 166 258 26 33 55 74 64 92 23 46 21 137 -4 189 -20 41 -92 116
-120 126 -10 3 -7 17 13 59 50 102 60 243 32 467 -21 166 -39 209 -172 399
-35 51 -70 111 -78 134 -45 125 23 269 126 269 49 0 72 -11 122 -59 37 -35 38
-35 28 -9 -34 90 -102 130 -179 105z"/>
<path d="M294 8425 c-4 -10 -1 -21 7 -25 17 -11 28 -4 25 17 -4 23 -25 28 -32
8z"/>
<path d="M234 8419 c-9 -15 11 -33 30 -26 9 4 13 13 10 22 -7 17 -30 20 -40 4z"/>
<path d="M344 8405 c-9 -23 14 -45 26 -25 5 8 8 19 7 24 -6 17 -27 18 -33 1z"/>
<path d="M200 8375 c0 -15 26 -32 36 -23 2 3 2 13 -2 22 -8 20 -34 21 -34 1z"/>
<path d="M58 8363 c-16 -8 -28 -20 -28 -28 0 -25 31 -46 66 -43 21 1 40 -4 53
-16 17 -16 23 -17 36 -6 41 34 39 78 -3 79 -40 1 -51 5 -56 18 -7 16 -33 15
-68 -4z"/>
<path d="M367 8357 c-3 -8 -1 -20 4 -28 7 -12 11 -11 25 3 17 17 12 38 -11 38
-7 0 -15 -6 -18 -13z"/>
<path d="M7948 8364 c-7 -7 2 -44 11 -44 18 0 30 24 20 37 -12 14 -22 16 -31
7z"/>
<path d="M7997 8340 c-4 -17 -1 -21 16 -18 25 3 30 31 6 36 -10 2 -19 -6 -22
-18z"/>
<path d="M310 8337 c41 -20 38 -64 -6 -112 -45 -49 -64 -92 -63 -142 1 -71 18
-84 18 -15 1 44 4 61 12 56 8 -4 9 0 4 15 -5 16 5 35 44 82 28 33 51 66 51 73
0 21 -40 56 -63 56 -21 0 -21 -1 3 -13z"/>
<path d="M7896 8341 c-9 -14 5 -42 18 -38 15 5 14 39 -1 44 -6 2 -14 0 -17 -6z"/>
<path d="M8036 8304 c-9 -23 -8 -24 12 -24 24 0 32 8 25 26 -7 19 -29 18 -37
-2z"/>
<path d="M8142 8294 c-5 -9 -23 -17 -40 -18 -56 -3 -64 -37 -17 -76 14 -11 19
-10 37 8 16 16 25 18 38 10 23 -15 74 10 78 39 2 15 -5 25 -29 37 -40 20 -56
20 -67 0z"/>
<path d="M7869 8289 c-12 -7 -11 -11 4 -26 15 -16 19 -16 27 -3 5 8 10 18 10
21 0 12 -27 17 -41 8z"/>
<path d="M7921 8254 c-12 -15 -21 -30 -21 -34 0 -5 23 -36 51 -69 36 -43 50
-68 46 -81 -3 -11 -1 -18 4 -14 5 3 9 -23 9 -58 0 -44 3 -59 10 -48 13 21 12
107 -2 133 -6 12 -28 42 -50 66 -47 54 -51 93 -10 115 25 14 25 15 5 16 -12 0
-31 -12 -42 -26z"/>
<path d="M320 8187 c0 -10 -4 -15 -10 -12 -5 3 -10 -1 -10 -9 0 -19 26 -21 33
-3 3 8 1 20 -4 28 -7 11 -9 10 -9 -4z"/>
<path d="M7939 8120 c-3 -8 -4 -21 -2 -27 5 -15 33 -17 33 -3 0 6 -4 10 -9 10
-5 0 -11 8 -13 18 -3 14 -5 14 -9 2z"/>
<path d="M371 7271 c-10 -6 -10 -10 -1 -16 13 -8 24 -1 19 14 -3 6 -10 7 -18
2z"/>
<path d="M357 7228 c-7 -21 -7 -28 1 -27 4 1 6 5 5 10 -2 5 4 9 12 9 8 0 15 5
15 10 0 14 -27 12 -33 -2z"/>
<path d="M310 7196 c0 -9 5 -16 10 -16 6 0 10 4 10 9 0 6 -4 13 -10 16 -5 3
-10 -1 -10 -9z"/>
<path d="M7880 7190 c0 -5 4 -10 9 -10 6 0 13 5 16 10 3 6 -1 10 -9 10 -9 0
-16 -4 -16 -10z"/>
<path d="M7880 7160 c0 -5 7 -10 15 -10 8 0 15 5 15 10 0 6 -7 10 -15 10 -8 0
-15 -4 -15 -10z"/>
<path d="M7905 7130 c3 -5 10 -10 16 -10 5 0 9 5 9 10 0 6 -7 10 -16 10 -8 0
-12 -4 -9 -10z"/>
<path d="M7940 7120 c0 -5 5 -10 10 -10 6 0 10 5 10 10 0 6 -4 10 -10 10 -5 0
-10 -4 -10 -10z"/>
<path d="M180 7065 c0 -29 12 -32 31 -9 10 13 10 17 -2 25 -23 14 -29 11 -29
-16z"/>
<path d="M236 7065 c-9 -24 -8 -25 15 -25 14 0 19 5 17 17 -4 23 -24 27 -32 8z"/>
<path d="M132 7061 c-14 -8 -6 -41 9 -41 14 0 23 30 13 40 -5 5 -15 6 -22 1z"/>
<path d="M266 7025 c-3 -9 1 -18 10 -22 19 -7 39 11 30 26 -10 16 -33 13 -40
-4z"/>
<path d="M375 7015 c-8 -13 -29 -20 -77 -24 -15 -2 -8 -48 10 -64 24 -22 39
-21 54 2 9 15 15 17 30 7 14 -8 24 -8 46 4 40 23 40 54 1 74 -40 20 -51 20
-64 1z"/>
<path d="M100 7003 c0 -17 19 -35 29 -29 18 12 12 36 -9 36 -11 0 -20 -3 -20
-7z"/>
<path d="M7931 6996 c-9 -10 -8 -16 4 -26 20 -16 38 -1 29 23 -8 21 -18 22
-33 3z"/>
<path d="M7982 6993 c2 -10 10 -18 18 -18 8 0 16 8 18 18 2 12 -3 17 -18 17
-15 0 -20 -5 -18 -17z"/>
<path d="M162 6984 c-35 -25 -28 -62 24 -118 34 -36 45 -55 41 -72 -2 -13 1
-22 6 -21 6 1 11 -21 11 -55 1 -31 4 -54 9 -51 10 6 9 107 -2 135 -5 13 -25
41 -45 63 -51 56 -56 82 -22 112 30 26 13 32 -22 7z"/>
<path d="M8032 6973 c2 -10 10 -18 18 -18 8 0 16 8 18 18 2 12 -3 17 -18 17
-15 0 -20 -5 -18 -17z"/>
<path d="M7897 6963 c-14 -13 -6 -33 13 -33 22 0 23 1 14 24 -7 17 -16 20 -27
9z"/>
<path d="M7770 6952 c0 -4 -10 -12 -22 -17 -31 -14 -33 -30 -7 -56 16 -16 29
-20 55 -16 22 4 37 1 45 -9 17 -21 36 -17 55 11 22 34 13 51 -34 59 -22 3 -42
13 -46 21 -5 15 -46 22 -46 7z"/>
<path d="M8060 6920 c0 -24 25 -27 34 -4 9 23 8 24 -14 24 -13 0 -20 -7 -20
-20z"/>
<path d="M7985 6920 c-3 -5 3 -10 14 -10 48 0 44 -60 -9 -115 -52 -53 -73
-136 -50 -190 6 -14 9 -1 9 43 1 35 5 61 10 58 5 -4 7 2 4 13 -3 11 6 29 22
47 46 48 75 90 75 106 0 17 -41 58 -58 58 -6 0 -14 -4 -17 -10z"/>
<path d="M171 6823 c-1 -24 22 -32 35 -11 5 7 2 9 -9 5 -10 -4 -17 0 -20 11
-3 12 -5 11 -6 -5z"/>
<path d="M8014 6763 c4 -8 1 -13 -8 -13 -9 0 -16 -4 -16 -10 0 -13 27 -13 36
1 3 6 1 16 -6 22 -10 9 -11 9 -6 0z"/>
<path d="M110 5910 c0 -5 7 -10 15 -10 8 0 15 5 15 10 0 6 -7 10 -15 10 -8 0
-15 -4 -15 -10z"/>
<path d="M115 5881 c-6 -11 9 -23 19 -14 9 9 7 23 -3 23 -6 0 -12 -4 -16 -9z"/>
<path d="M140 5850 c0 -5 5 -10 10 -10 6 0 10 5 10 10 0 6 -4 10 -10 10 -5 0
-10 -4 -10 -10z"/>
<path d="M8060 5840 c0 -5 5 -10 10 -10 6 0 10 5 10 10 0 6 -4 10 -10 10 -5 0
-10 -4 -10 -10z"/>
<path d="M8057 5814 c-8 -8 1 -24 14 -24 5 0 9 7 9 15 0 15 -12 20 -23 9z"/>
<path d="M8036 5775 c4 -8 10 -12 15 -9 14 8 10 24 -6 24 -9 0 -12 -6 -9 -15z"/>
<path d="M8000 5765 c0 -8 5 -15 10 -15 6 0 10 7 10 15 0 8 -4 15 -10 15 -5 0
-10 -7 -10 -15z"/>
<path d="M230 5728 c-32 -17 -50 -35 -66 -68 -28 -55 -23 -63 12 -21 35 42 74
61 123 61 102 0 171 -148 128 -270 -7 -19 -48 -87 -92 -150 -121 -178 -142
-228 -161 -395 -25 -217 -14 -354 40 -475 5 -12 -4 -18 -37 -27 -82 -22 -164
-125 -175 -219 -7 -63 11 -102 104 -226 83 -111 151 -229 172 -298 6 -19 18
-99 27 -177 18 -154 12 -241 -22 -345 -15 -44 -24 -56 -56 -71 -37 -17 -39
-17 -84 3 l-46 20 6 59 c7 81 19 101 63 101 46 0 74 -16 74 -42 0 -16 -3 -18
-14 -9 -8 7 -25 9 -38 6 -20 -5 -24 -12 -23 -43 0 -29 4 -37 23 -42 13 -3 23
-9 22 -15 -3 -22 16 -13 27 12 24 58 25 98 3 126 -27 34 -81 45 -115 23 -30
-20 -60 -112 -50 -156 6 -27 48 -73 76 -82 9 -3 8 -11 -3 -29 -9 -13 -19 -35
-23 -48 -6 -19 0 -15 30 17 82 92 190 77 241 -33 45 -96 27 -167 -80 -324 -96
-140 -121 -185 -140 -251 -43 -153 -47 -469 -8 -569 29 -73 66 -111 110 -111
50 0 101 28 120 66 30 65 -22 194 -78 194 -32 0 -80 -28 -89 -53 -11 -30 -2
-97 15 -104 7 -2 10 -11 7 -19 -3 -9 2 -14 16 -14 12 0 21 -5 21 -11 0 -5 5
-7 10 -4 16 10 11 22 -12 30 l-23 7 25 7 c21 6 25 13 25 43 1 31 -3 38 -23 43
-13 3 -30 1 -38 -6 -11 -9 -14 -8 -14 4 0 27 30 47 70 47 48 0 60 -18 67 -100
5 -53 3 -59 -18 -73 -35 -23 -100 -31 -121 -15 -25 18 -57 115 -68 206 -10 77
8 295 31 387 17 63 80 173 172 299 47 64 91 133 97 152 33 99 -35 236 -143
287 -20 10 -37 19 -37 20 0 1 10 27 22 57 46 117 31 495 -25 620 -13 30 -60
109 -104 175 -111 167 -117 179 -118 255 0 79 23 131 74 166 63 43 129 28 191
-42 27 -32 31 -34 25 -13 -4 13 -13 34 -21 46 -19 31 -19 31 26 49 63 25 84
82 60 163 -22 76 -88 104 -143 60 -23 -17 -26 -27 -26 -69 1 -29 7 -55 15 -61
8 -6 14 -18 14 -27 0 -12 5 -11 20 6 12 12 25 22 29 22 5 0 11 18 13 39 2 22
0 37 -5 34 -4 -2 -15 1 -23 8 -11 9 -18 8 -34 -6 -16 -15 -20 -15 -20 -3 0 30
27 52 64 52 47 0 63 -18 76 -82 11 -62 6 -78 -29 -96 -82 -42 -119 -26 -153
69 -42 119 -30 418 22 558 24 63 94 175 181 287 68 88 79 114 79 181 0 64 -30
127 -86 179 -72 66 -122 79 -184 48z"/>
<path d="M294 5655 c-8 -19 9 -40 24 -31 13 8 9 39 -6 44 -7 2 -15 -4 -18 -13z"/>
<path d="M235 5650 c-9 -15 4 -30 27 -30 14 0 18 5 14 16 -3 9 -6 18 -6 20 0
8 -29 4 -35 -6z"/>
<path d="M344 5635 c-9 -23 14 -45 26 -25 5 8 8 19 7 24 -6 17 -27 18 -33 1z"/>
<path d="M7947 5644 c-9 -9 4 -34 18 -34 14 0 27 25 18 34 -4 3 -12 6 -18 6
-6 0 -14 -3 -18 -6z"/>
<path d="M8001 5631 c-10 -17 -9 -22 4 -27 26 -10 42 13 23 32 -15 15 -17 15
-27 -5z"/>
<path d="M7890 5616 c0 -17 24 -38 33 -29 15 15 6 43 -13 43 -11 0 -20 -6 -20
-14z"/>
<path d="M200 5600 c0 -14 7 -20 21 -20 15 0 19 4 15 16 -3 9 -6 18 -6 20 0 2
-7 4 -15 4 -8 0 -15 -9 -15 -20z"/>
<path d="M58 5593 c-39 -20 -36 -49 7 -70 27 -13 38 -14 47 -5 9 9 17 7 33 -8
26 -24 47 -19 65 16 17 31 3 48 -42 50 -17 1 -35 9 -40 18 -11 19 -33 19 -70
-1z"/>
<path d="M8036 5593 c-9 -24 9 -39 29 -23 12 10 13 16 4 26 -15 19 -25 18 -33
-3z"/>
<path d="M371 5587 c-6 -8 -6 -18 -1 -27 7 -11 11 -11 24 -1 9 8 16 17 16 21
0 14 -28 19 -39 7z"/>
<path d="M8155 5589 c-9 -13 -53 -32 -80 -33 -30 -2 -30 -32 0 -62 25 -25 27
-26 46 -8 13 12 32 17 53 16 41 -4 76 30 59 56 -5 9 -15 17 -21 17 -6 0 -17 6
-23 13 -16 15 -26 15 -34 1z"/>
<path d="M313 5564 c40 -22 36 -61 -13 -116 -46 -53 -60 -85 -59 -136 1 -70
18 -82 18 -14 1 35 5 61 10 58 5 -4 7 3 4 14 -4 13 10 38 46 81 28 33 51 64
51 69 0 19 -44 60 -63 60 -20 -1 -20 -2 6 -16z"/>
<path d="M7866 5572 c-2 -4 2 -15 9 -25 11 -15 14 -15 25 -3 6 9 9 20 5 26 -7
12 -32 13 -39 2z"/>
<path d="M7922 5548 c-10 -13 -15 -34 -13 -55 0 -7 22 -36 47 -64 30 -34 44
-58 41 -70 -3 -11 -1 -17 4 -13 5 3 9 -25 9 -63 0 -48 3 -63 10 -53 15 24 12
108 -6 143 -9 18 -32 49 -51 70 -41 46 -42 85 -3 104 l25 13 -26 0 c-15 0 -31
-6 -37 -12z"/>
<path d="M320 5418 c0 -10 -4 -18 -10 -18 -5 0 -10 -4 -10 -10 0 -15 27 -12
33 3 3 8 1 20 -4 28 -7 11 -9 11 -9 -3z"/>
<path d="M7938 5399 c-6 -16 8 -39 24 -39 4 0 8 7 8 16 0 8 -4 13 -9 9 -5 -3
-11 3 -13 12 -3 16 -4 16 -10 2z"/>
<path d="M365 4490 c3 -5 10 -10 16 -10 5 0 9 5 9 10 0 6 -7 10 -16 10 -8 0
-12 -4 -9 -10z"/>
<path d="M7880 4475 c0 -9 6 -12 15 -9 8 4 12 10 9 15 -8 14 -24 10 -24 -6z"/>
<path d="M365 4460 c-3 -5 1 -10 9 -10 9 0 16 5 16 10 0 6 -4 10 -9 10 -6 0
-13 -4 -16 -10z"/>
<path d="M7880 4440 c0 -5 4 -10 9 -10 6 0 13 5 16 10 3 6 -1 10 -9 10 -9 0
-16 -4 -16 -10z"/>
<path d="M345 4430 c3 -5 10 -10 16 -10 5 0 9 5 9 10 0 6 -7 10 -16 10 -8 0
-12 -4 -9 -10z"/>
<path d="M310 4420 c0 -5 5 -10 10 -10 6 0 10 5 10 10 0 6 -4 10 -10 10 -5 0
-10 -4 -10 -10z"/>
<path d="M7905 4421 c-6 -11 9 -23 19 -14 9 9 7 23 -3 23 -6 0 -12 -4 -16 -9z"/>
<path d="M7946 4411 c-4 -7 -5 -15 -2 -18 9 -9 19 4 14 18 -4 11 -6 11 -12 0z"/>
<path d="M180 4290 c0 -23 25 -27 33 -6 7 16 -1 26 -20 26 -7 0 -13 -9 -13
-20z"/>
<path d="M236 4293 c-4 -9 -3 -20 1 -24 13 -13 37 7 30 25 -8 21 -23 20 -31
-1z"/>
<path d="M7983 4284 c-7 -18 17 -38 31 -24 11 11 1 40 -14 40 -6 0 -13 -7 -17
-16z"/>
<path d="M124 4274 c3 -9 6 -18 6 -20 0 -2 7 -4 15 -4 8 0 15 9 15 20 0 14 -7
20 -21 20 -15 0 -19 -4 -15 -16z"/>
<path d="M7927 4276 c-7 -18 1 -26 26 -26 13 0 17 5 13 16 -3 9 -6 18 -6 20 0
11 -29 2 -33 -10z"/>
<path d="M8033 4264 c-8 -21 13 -42 28 -27 13 13 5 43 -11 43 -6 0 -13 -7 -17
-16z"/>
<path d="M267 4250 c-4 -17 -1 -21 16 -18 25 3 30 31 6 36 -10 2 -19 -6 -22
-18z"/>
<path d="M380 4245 c-7 -8 -30 -18 -51 -21 -32 -5 -39 -11 -39 -29 0 -22 28
-55 47 -55 6 0 16 7 23 15 8 9 21 13 36 9 30 -8 74 19 74 45 0 12 -13 26 -32
35 -38 20 -42 20 -58 1z"/>
<path d="M7778 4236 c-9 -9 -24 -16 -33 -16 -24 0 -30 -28 -9 -51 12 -14 28
-19 50 -17 21 1 40 -4 53 -16 21 -19 22 -19 47 4 37 36 29 64 -19 67 -25 1
-44 10 -56 24 -16 20 -18 20 -33 5z"/>
<path d="M7892 4234 c2 -11 11 -20 22 -22 13 -3 17 1 14 14 -2 11 -11 20 -22
22 -13 3 -17 -1 -14 -14z"/>
<path d="M96 4231 c-8 -12 21 -34 34 -26 17 11 11 35 -9 35 -11 0 -22 -4 -25
-9z"/>
<path d="M160 4210 c-30 -30 -24 -57 25 -113 25 -29 45 -59 45 -69 0 -9 4 -19
9 -22 5 -3 8 -30 7 -60 0 -30 2 -52 7 -49 11 7 8 112 -4 136 -7 12 -27 39 -45
59 -54 60 -55 118 -2 118 10 0 16 5 13 10 -10 16 -33 12 -55 -10z"/>
<path d="M8060 4211 c0 -11 4 -22 9 -25 12 -8 34 21 26 34 -11 17 -35 11 -35
-9z"/>
<path d="M7997 4200 c53 -22 46 -66 -22 -141 -39 -44 -52 -93 -37 -152 l10
-42 1 63 c0 34 5 62 11 62 5 0 7 6 4 14 -3 7 18 42 45 76 28 35 51 69 51 77 0
21 -38 53 -62 52 l-23 0 22 -9z"/>
<path d="M171 4053 c-1 -17 5 -23 19 -23 11 0 20 5 20 11 0 6 -6 9 -14 6 -9
-4 -17 1 -19 11 -3 12 -5 11 -6 -5z"/>
<path d="M8014 4046 c5 -14 2 -17 -9 -12 -9 3 -15 0 -15 -9 0 -20 29 -19 37 1
3 8 0 21 -7 27 -10 10 -12 8 -6 -7z"/>
<path d="M110 3140 c0 -5 7 -10 15 -10 8 0 15 5 15 10 0 6 -7 10 -15 10 -8 0
-15 -4 -15 -10z"/>
<path d="M8066 3131 c-4 -7 -5 -15 -2 -18 9 -9 19 4 14 18 -4 11 -6 11 -12 0z"/>
<path d="M116 3111 c-4 -5 -2 -12 3 -15 5 -4 12 -2 15 3 4 5 2 12 -3 15 -5 4
-12 2 -15 -3z"/>
<path d="M8043 3081 c-12 -19 -8 -31 10 -31 5 0 7 7 3 15 -3 9 0 15 9 15 8 0
15 5 15 10 0 17 -25 11 -37 -9z"/>
<path d="M140 3080 c0 -5 5 -10 10 -10 6 0 10 5 10 10 0 6 -4 10 -10 10 -5 0
-10 -4 -10 -10z"/>
<path d="M172 3069 c2 -6 8 -10 13 -10 5 0 11 4 13 10 2 6 -4 11 -13 11 -9 0
-15 -5 -13 -11z"/>
<path d="M8000 3056 c0 -9 5 -16 10 -16 6 0 10 4 10 9 0 6 -4 13 -10 16 -5 3
-10 -1 -10 -9z"/>
<path d="M214 2955 c-7 -18 3 -35 22 -35 15 0 17 9 8 34 -8 20 -23 21 -30 1z"/>
<path d="M267 2964 c-9 -10 4 -34 19 -34 8 0 14 9 14 20 0 19 -19 27 -33 14z"/>
<path d="M320 2930 c0 -24 25 -27 34 -4 9 23 8 24 -14 24 -13 0 -20 -7 -20
-20z"/>
<path d="M8000 2931 c0 -15 6 -21 21 -21 14 0 19 5 17 17 -5 26 -38 29 -38 4z"/>
<path d="M8061 2931 c-10 -17 -9 -22 4 -27 26 -10 42 13 23 32 -15 15 -17 15
-27 -5z"/>
<path d="M177 2916 c-7 -18 1 -26 26 -26 13 0 17 5 13 16 -3 9 -6 18 -6 20 0
11 -29 2 -33 -10z"/>
<path d="M7954 2905 c5 -18 2 -25 -8 -25 -21 0 -30 -19 -16 -35 14 -17 30 -11
30 12 0 9 7 24 16 34 18 20 11 39 -13 39 -11 0 -14 -6 -9 -25z"/>
<path d="M38 2903 c-16 -8 -28 -23 -28 -33 0 -26 44 -54 75 -48 14 3 30 -1 36
-8 24 -29 69 -2 69 40 0 19 -7 25 -39 30 -21 3 -44 13 -51 21 -15 18 -26 18
-62 -2z"/>
<path d="M8096 2893 c-9 -22 10 -41 25 -26 13 13 5 43 -10 43 -5 0 -12 -8 -15
-17z"/>
<path d="M340 2886 c0 -8 5 -18 10 -21 13 -8 42 14 34 26 -9 15 -44 10 -44 -5z"/>
<path d="M8215 2889 c-9 -13 -53 -32 -80 -33 -30 -2 -30 -38 0 -66 l27 -25 17
21 c12 16 25 20 51 16 44 -5 81 28 63 56 -5 9 -15 17 -21 17 -6 0 -17 6 -23
13 -16 15 -26 15 -34 1z"/>
<path d="M270 2880 c-12 -8 -11 -10 6 -10 55 0 58 -52 6 -111 -22 -24 -44 -54
-50 -66 -15 -27 -16 -129 -2 -138 6 -4 10 17 10 55 0 34 4 59 9 56 5 -4 7 3 4
14 -4 13 9 36 41 73 50 59 56 87 26 117 -23 23 -29 24 -50 10z"/>
<path d="M7974 2835 c-20 -31 -14 -49 42 -110 28 -31 43 -56 40 -67 -2 -10 0
-16 4 -13 5 3 10 -25 12 -62 l3 -68 9 48 c12 65 -3 111 -54 167 -48 53 -52 96
-10 117 l25 13 -27 0 c-18 0 -33 -8 -44 -25z"/>
<path d="M300 2715 c0 -9 -6 -12 -15 -9 -8 4 -15 1 -15 -5 0 -6 9 -11 20 -11
13 0 20 7 20 20 0 11 -2 20 -5 20 -3 0 -5 -7 -5 -15z"/>
<path d="M7995 2700 c-8 -13 14 -42 26 -34 15 9 10 24 -6 18 -11 -5 -13 -2 -9
10 7 18 -1 22 -11 6z"/>
<path d="M345 1800 c-3 -5 1 -10 9 -10 9 0 16 5 16 10 0 6 -4 10 -9 10 -6 0
-13 -4 -16 -10z"/>
<path d="M7940 1775 c0 -9 6 -12 15 -9 8 4 12 10 9 15 -8 14 -24 10 -24 -6z"/>
<path d="M346 1772 c-3 -6 -1 -14 5 -17 15 -10 25 3 12 16 -7 7 -13 7 -17 1z"/>
<path d="M320 1741 c0 -6 5 -13 10 -16 6 -3 10 1 10 9 0 9 -4 16 -10 16 -5 0
-10 -4 -10 -9z"/>
<path d="M7940 1740 c0 -5 4 -10 9 -10 6 0 13 5 16 10 3 6 -1 10 -9 10 -9 0
-16 -4 -16 -10z"/>
<path d="M7965 1721 c-6 -11 9 -23 19 -14 9 9 7 23 -3 23 -6 0 -12 -4 -16 -9z"/>
<path d="M8000 1705 c0 -8 5 -15 10 -15 6 0 10 7 10 15 0 8 -4 15 -10 15 -5 0
-10 -7 -10 -15z"/>
<path d="M220 1591 c-83 -44 -124 -122 -100 -191 17 -49 58 -90 90 -90 15 0
35 -9 45 -20 30 -33 85 -21 85 20 0 8 10 20 23 25 33 15 35 59 2 81 -32 21
-101 22 -121 2 -8 -8 -16 -32 -17 -53 -3 -45 -18 -54 -46 -26 -32 32 -46 98
-30 145 20 56 58 81 125 81 53 0 58 -2 97 -45 34 -36 39 -45 25 -48 -10 -2
-18 -10 -18 -18 0 -17 12 -18 27 -3 16 16 43 -79 43 -152 0 -106 -49 -263 -71
-228 -6 10 -9 8 -9 -11 -1 -23 -2 -23 -15 8 -8 18 -26 37 -40 42 -41 15 -43
12 -7 -10 26 -16 32 -26 32 -54 0 -19 -9 -45 -21 -60 -17 -22 -28 -27 -58 -24
-34 3 -36 5 -42 45 -9 70 -62 111 -100 77 -10 -9 -19 -24 -19 -31 0 -8 -10
-23 -22 -32 -59 -48 49 -120 121 -81 12 6 28 5 48 -2 51 -19 79 -4 127 70 45
67 85 159 106 242 15 57 69 110 111 110 37 0 84 -24 93 -47 8 -19 -23 -66 -46
-71 -11 -2 -14 3 -11 21 7 35 -16 45 -38 18 -22 -27 -11 -57 24 -70 30 -11 62
5 83 44 16 30 16 33 -1 63 -10 16 -36 40 -57 52 -33 18 -43 20 -71 11 -17 -7
-43 -23 -58 -37 l-26 -25 -7 67 c-11 104 -57 175 -138 208 -48 20 -75 20 -118
-3z"/>
<path d="M7965 1591 c-75 -34 -119 -103 -130 -207 l-7 -61 -25 23 c-40 37 -86
48 -121 30 -31 -16 -82 -70 -82 -88 0 -21 34 -67 58 -78 21 -9 30 -8 51 8 32
23 37 45 16 65 -22 23 -48 10 -42 -20 6 -33 -19 -27 -47 10 l-21 29 33 29 c73
65 166 13 187 -106 4 -22 11 -44 15 -50 4 -5 15 -30 24 -55 10 -25 38 -75 63
-113 48 -73 76 -88 126 -69 19 7 37 8 53 1 36 -13 71 -11 104 6 36 18 41 58
10 77 -11 7 -20 20 -20 29 0 9 -9 24 -19 33 -38 34 -91 -7 -100 -77 -6 -39 -9
-42 -38 -45 -45 -4 -83 34 -83 83 0 29 6 39 33 55 35 22 33 25 -8 10 -14 -5
-32 -24 -40 -42 -13 -31 -14 -31 -15 -8 0 19 -3 21 -9 11 -23 -35 -71 125 -71
234 0 68 27 162 43 146 15 -15 27 -14 27 3 0 8 -8 16 -17 18 -15 3 -11 11 22
46 31 33 49 44 80 49 80 10 155 -49 155 -122 0 -35 -34 -114 -50 -116 -31 -5
-34 -2 -37 35 -3 49 -21 68 -66 69 -46 1 -86 -20 -93 -50 -7 -25 10 -53 32
-53 8 0 14 -8 14 -18 0 -43 54 -56 85 -22 10 11 30 20 45 20 44 0 100 74 100
132 0 48 -41 108 -94 138 -59 35 -86 37 -141 11z"/>
<path d="M255 1540 c-4 -6 -3 -16 3 -22 6 -6 12 -6 17 2 4 6 3 16 -3 22 -6 6
-12 6 -17 -2z"/>
<path d="M8035 1540 c-7 -12 2 -30 16 -30 5 0 9 9 9 20 0 21 -15 27 -25 10z"/>
<path d="M295 1530 c-3 -6 1 -13 10 -16 19 -8 30 0 20 15 -8 14 -22 14 -30 1z"/>
<path d="M7985 1531 c-7 -12 12 -24 25 -16 11 7 4 25 -10 25 -5 0 -11 -4 -15
-9z"/>
<path d="M340 1505 c0 -8 7 -15 15 -15 8 0 15 7 15 15 0 8 -7 15 -15 15 -8 0
-15 -7 -15 -15z"/>
<path d="M7940 1505 c0 -8 7 -15 15 -15 8 0 15 7 15 15 0 8 -7 15 -15 15 -8 0
-15 -7 -15 -15z"/>
<path d="M220 1220 c-11 -11 -20 -29 -20 -40 0 -22 33 -60 51 -60 7 0 0 9 -15
21 -31 25 -33 42 -5 70 31 31 80 9 120 -56 23 -36 25 -26 4 15 -33 64 -97 88
-135 50z"/>
<path d="M7996 1219 c-28 -22 -61 -77 -52 -87 3 -3 6 0 6 6 0 6 14 27 30 45
37 42 75 52 101 26 26 -26 24 -44 -7 -68 -15 -12 -22 -21 -15 -21 18 0 51 38
51 60 0 27 -35 60 -64 60 -13 0 -35 -9 -50 -21z"/>
<path d="M673 1146 c-202 -98 -363 -258 -466 -461 -40 -81 -87 -223 -87 -266
0 -43 21 -93 45 -106 12 -7 9 -18 -15 -67 -51 -101 -37 -181 36 -212 47 -20
87 -17 117 6 l26 20 24 -24 c29 -29 67 -41 101 -32 40 10 85 54 91 90 5 25 13
34 38 42 21 6 37 20 47 41 13 29 20 33 57 33 74 0 106 70 61 136 -30 44 -91
82 -144 90 -60 9 -72 2 -98 -58 -15 -33 -25 -47 -30 -39 -5 7 -26 25 -47 41
-32 23 -45 27 -72 20 -47 -11 -86 -28 -118 -51 l-28 -20 -16 30 c-8 17 -15 46
-15 66 0 44 28 108 43 98 5 -3 7 -1 3 5 -10 16 52 55 86 54 35 -1 73 -24 88
-53 9 -17 8 -25 -7 -41 -35 -38 -84 -50 -53 -13 11 13 11 19 -3 32 -13 13 -19
14 -31 3 -24 -19 -20 -57 9 -76 29 -19 53 -13 89 25 26 27 27 30 13 63 -17 41
-71 88 -101 88 -12 0 -39 -9 -61 -20 -21 -11 -40 -18 -43 -16 -11 12 37 59 83
81 104 51 220 42 283 -21 31 -31 34 -39 29 -72 -4 -20 -16 -45 -28 -54 -26
-22 -77 -23 -107 -2 -26 18 -29 42 -4 40 9 0 17 6 17 14 0 8 -9 15 -20 15 -33
0 -33 -57 1 -84 41 -33 89 -28 130 13 28 28 34 41 34 77 0 36 -6 47 -40 80
-32 30 -49 39 -93 44 -86 11 -175 -13 -260 -69 l-28 -19 26 59 c33 75 91 150
181 232 161 149 341 217 501 192 37 -6 74 -16 83 -23 68 -50 102 -101 119
-179 19 -82 -20 -175 -92 -219 l-31 -18 -19 49 c-22 59 -55 86 -126 101 -62
13 -89 8 -131 -27 -37 -31 -56 -66 -69 -127 -29 -125 91 -331 252 -437 92 -60
145 -50 176 33 11 28 10 28 -23 -7 -42 -45 -76 -47 -117 -7 -33 33 -37 65 -11
94 17 19 16 20 -6 8 -20 -11 -23 -19 -20 -53 4 -39 3 -39 -13 -19 -12 15 -19
17 -23 9 -9 -22 -93 79 -133 158 -43 88 -58 183 -28 181 10 -1 20 4 23 12 3
10 -1 12 -17 8 -25 -6 -27 13 -5 58 l14 30 -5 -27 c-4 -19 -1 -28 8 -28 7 0
26 -13 41 -29 16 -16 41 -35 57 -41 16 -7 31 -21 34 -31 10 -32 69 -25 108 12
l32 31 5 -53 c7 -67 24 -94 112 -169 211 -183 394 -257 656 -267 l143 -6 76
38 c178 88 257 234 203 372 -65 164 -152 230 -293 221 -117 -7 -198 -70 -212
-163 -4 -30 -1 -49 14 -75 11 -19 29 -53 39 -76 21 -43 74 -94 98 -94 24 0 71
28 78 45 3 9 6 27 6 40 0 17 7 24 28 28 28 6 52 40 52 76 0 22 -46 66 -83 80
-35 14 -108 14 -142 1 -14 -5 -29 -20 -34 -32 -8 -22 -8 -22 -18 -3 -32 61 68
125 194 125 60 0 116 -20 151 -53 94 -87 93 -271 -1 -352 -52 -44 -144 -89
-215 -104 -175 -36 -461 21 -592 119 -71 53 -71 54 -24 46 115 -17 276 53 309
136 26 66 15 112 -37 142 -48 29 -97 24 -130 -13 -33 -37 -36 -71 -9 -95 21
-19 41 -14 41 9 0 20 -21 30 -31 14 -13 -22 -23 16 -9 40 12 23 59 51 85 51 9
0 30 -13 46 -29 89 -90 -50 -241 -221 -241 -53 0 -73 4 -91 20 l-24 20 25 -5
c45 -10 103 16 122 55 41 80 14 140 -62 140 -43 0 -60 -15 -60 -50 0 -44 50
-71 64 -34 8 20 -1 34 -20 34 -8 0 -12 5 -9 10 9 14 58 12 79 -3 24 -18 14
-65 -20 -102 -23 -25 -31 -27 -78 -23 -64 5 -108 36 -137 96 -28 58 -16 98 50
170 27 28 45 52 41 52 -5 0 -4 17 2 38 14 49 3 193 -18 237 -21 45 -84 101
-142 127 -35 15 -75 22 -152 25 -104 4 -106 4 -177 -31z m235 -382 c25 -16 52
-70 52 -103 0 -22 -25 -31 -94 -31 -71 0 -120 48 -82 79 11 9 15 9 18 0 3 -8
11 -10 22 -6 15 6 18 15 13 48 -5 40 -5 41 21 34 15 -3 38 -13 50 -21z m32
-184 c-20 -13 -40 -13 -40 0 0 6 12 10 28 10 21 0 24 -2 12 -10z"/>
<path d="M7334 1160 c-69 -22 -142 -81 -168 -133 -20 -44 -32 -190 -18 -239 6
-21 7 -38 3 -38 -5 0 16 -26 45 -57 54 -59 69 -95 58 -141 -24 -102 -164 -160
-227 -94 -37 38 -46 87 -19 101 26 14 69 14 77 1 3 -5 0 -10 -8 -10 -17 0 -26
-19 -20 -37 6 -16 35 -17 51 -1 7 7 12 24 12 38 0 35 -17 50 -60 50 -74 0
-100 -53 -66 -135 17 -41 44 -56 102 -58 45 -2 45 -2 23 -20 -15 -12 -39 -17
-89 -17 -122 0 -235 77 -247 169 -5 35 -2 44 25 71 35 35 55 37 99 11 35 -22
51 -57 34 -74 -8 -8 -11 -8 -11 1 0 18 -20 15 -27 -4 -9 -24 18 -36 39 -17 45
41 -6 125 -75 125 -109 0 -151 -111 -75 -198 58 -66 190 -112 282 -98 22 4 38
4 35 0 -32 -34 -126 -90 -194 -115 -277 -100 -540 -75 -681 65 -115 114 -65
342 84 384 110 30 263 -15 272 -80 7 -46 -12 -71 -23 -30 -10 39 -114 54 -181
26 -37 -15 -76 -60 -76 -86 0 -26 39 -70 61 -70 13 0 19 -7 19 -24 0 -13 3
-32 6 -41 7 -17 54 -45 78 -45 24 0 77 51 98 94 10 23 28 57 39 76 40 70 -1
169 -88 211 -63 31 -155 37 -220 15 -82 -28 -136 -88 -178 -199 -29 -78 -31
-108 -10 -166 l14 -41 -29 15 c-43 22 -46 18 -11 -17 55 -57 37 -132 -41 -163
-61 -24 -105 -12 -208 56 -50 32 -112 70 -138 83 -95 48 -375 61 -452 21 -19
-10 -36 -13 -37 -8 -23 69 -91 132 -151 140 -60 8 -77 1 -187 -78 -140 -100
-173 -113 -337 -133 -47 -5 -48 -5 -62 28 -8 18 -23 40 -34 47 -10 8 -22 24
-26 37 -9 26 -54 52 -93 52 -15 1 -39 7 -53 15 -14 8 -35 14 -46 15 -19 0 -22
7 -26 60 -5 68 -29 102 -84 120 -41 14 -70 6 -105 -27 l-26 -24 -34 20 c-42
26 -62 26 -114 1 -69 -33 -84 -104 -41 -195 22 -48 104 -135 126 -135 6 0 8
-5 4 -11 -5 -8 -35 -9 -103 -5 -176 13 -227 31 -360 128 -40 29 -85 61 -100
70 -32 22 -102 23 -140 4 -37 -19 -89 -80 -97 -112 -5 -18 -11 -23 -23 -18
-86 36 -200 44 -348 23 -96 -13 -135 -30 -249 -106 -49 -33 -106 -65 -126 -72
-47 -15 -101 -5 -138 26 -50 41 -49 94 3 151 33 36 -1 26 -39 -12 -40 -40 -43
-67 -11 -118 42 -70 118 -108 185 -93 16 3 65 33 108 66 148 112 252 148 429
149 73 0 166 -20 191 -40 18 -16 18 -69 -1 -94 -11 -15 -23 -18 -56 -13 -56 7
-76 28 -63 64 5 15 18 29 29 32 17 3 18 1 5 -14 -13 -15 -12 -19 5 -31 25 -19
28 -18 55 11 19 21 21 25 7 25 -9 0 -17 4 -17 9 0 10 -29 12 -66 5 -11 -2 -26
-16 -33 -31 -17 -38 11 -75 68 -87 35 -8 46 -6 69 11 15 11 28 30 30 42 4 25
5 25 45 5 l32 -17 -33 37 c-78 89 3 196 131 172 18 -3 82 -39 143 -79 61 -40
129 -78 151 -85 111 -33 421 -39 468 -8 13 9 26 16 28 16 3 0 7 -21 11 -47 3
-27 19 -76 36 -110 28 -61 30 -63 68 -63 97 0 206 59 246 135 11 22 21 41 22
42 0 2 47 8 105 14 119 12 169 31 284 109 128 86 183 99 246 57 69 -46 75
-104 17 -159 -34 -31 -31 -35 11 -13 28 14 29 14 41 -16 17 -39 43 -52 89 -44
75 14 100 53 66 102 -12 16 -25 22 -50 21 -35 -1 -75 -29 -75 -51 0 -7 4 -6
10 3 8 13 11 12 23 -4 12 -16 17 -17 36 -6 15 8 21 18 18 31 -3 10 -2 19 3 19
16 0 31 -30 28 -57 -3 -25 -8 -29 -51 -37 -55 -11 -73 0 -83 50 -8 40 11 59
78 79 96 28 301 13 393 -29 28 -13 95 -56 150 -95 55 -40 110 -74 123 -78 80
-20 202 69 202 148 0 28 0 28 48 -19 27 -26 78 -63 113 -82 l64 -35 150 0
c124 1 165 5 235 24 157 42 298 120 441 243 87 74 103 99 109 167 l5 55 35
-32 c41 -38 95 -44 105 -13 3 10 18 24 34 31 16 6 41 25 57 41 15 16 34 29 41
29 9 0 12 9 8 28 l-5 27 14 -30 c22 -45 20 -64 -5 -58 -16 4 -20 2 -17 -8 3
-8 13 -13 23 -12 15 1 17 -6 13 -53 -6 -74 -72 -205 -134 -264 l-47 -45 7 30
6 30 -17 -30 -18 -30 -3 37 c-2 27 -10 41 -25 49 -21 12 -21 11 -4 -8 25 -29
21 -61 -12 -94 -41 -40 -75 -38 -117 7 -33 35 -34 35 -23 7 31 -83 84 -93 175
-34 124 82 215 206 250 341 14 55 14 66 -1 117 -18 63 -73 127 -117 138 -15 4
-51 2 -82 -5 -67 -14 -110 -52 -126 -111 l-11 -40 -31 18 c-17 10 -45 35 -62
56 -29 36 -31 44 -31 121 0 74 3 87 30 131 45 73 88 102 168 115 115 18 241
-13 375 -91 69 -41 252 -221 280 -275 11 -21 27 -56 35 -76 l16 -37 -48 30
c-67 41 -165 63 -236 54 -46 -5 -63 -13 -95 -44 -34 -32 -40 -44 -40 -79 0
-56 51 -112 102 -112 51 0 90 33 86 74 -2 23 -8 31 -23 31 -11 0 -20 -7 -20
-15 0 -8 8 -14 18 -14 24 2 21 -22 -5 -40 -23 -17 -64 -21 -93 -10 -19 8 -45
55 -45 85 0 32 60 85 111 99 85 23 210 -8 264 -66 36 -39 31 -46 -17 -24 -24
11 -53 20 -65 20 -30 0 -89 -53 -102 -91 -10 -29 -8 -34 23 -65 38 -38 65 -43
89 -16 21 23 22 56 1 72 -12 11 -18 10 -31 -3 -14 -13 -14 -19 -3 -32 31 -37
-18 -25 -53 13 -15 16 -16 24 -7 41 15 30 53 52 90 53 33 1 87 -33 82 -52 -1
-6 2 -9 8 -5 15 9 40 -57 40 -107 0 -24 -7 -54 -16 -66 l-15 -22 -29 20 c-31
22 -80 44 -122 54 -21 5 -36 -2 -76 -33 l-49 -39 -22 54 c-21 49 -26 54 -54
54 -63 0 -111 -21 -159 -70 -55 -54 -62 -90 -27 -134 16 -21 29 -26 62 -26 37
0 44 -4 57 -33 10 -21 26 -35 47 -41 25 -8 34 -17 39 -40 18 -88 134 -125 194
-61 l23 24 25 -19 c29 -23 70 -25 116 -6 73 30 87 111 38 210 -25 47 -27 58
-15 68 56 46 55 137 -5 282 -106 258 -273 440 -503 551 -67 32 -81 35 -159 34
-55 0 -107 -7 -146 -19z m142 -412 c-1 -41 0 -43 28 -43 38 0 44 -20 15 -51
-18 -20 -32 -24 -76 -24 -75 0 -97 13 -89 53 9 45 33 77 69 92 49 22 54 19 53
-27z m-66 -168 c0 -5 -6 -10 -14 -10 -8 0 -18 5 -21 10 -3 6 3 10 14 10 12 0
21 -4 21 -10z m-3019 -212 c13 -20 -1 -30 -34 -23 -39 9 -59 25 -31 26 19 0
19 1 -1 10 -15 7 -10 8 19 5 22 -3 43 -11 47 -18z"/>
<path d="M260 1151 c0 -6 5 -13 10 -16 6 -3 10 1 10 9 0 9 -4 16 -10 16 -5 0
-10 -4 -10 -9z"/>
<path d="M8030 1144 c0 -8 5 -12 10 -9 6 3 10 10 10 16 0 5 -4 9 -10 9 -5 0
-10 -7 -10 -16z"/>
<path d="M247 1084 c-5 -27 17 -58 37 -51 6 2 13 12 14 21 3 14 -1 17 -18 11
-21 -7 -22 -5 -16 19 3 14 2 26 -3 26 -5 0 -11 -12 -14 -26z"/>
<path d="M8048 1084 c4 -23 2 -25 -17 -19 -15 4 -21 2 -21 -9 0 -19 14 -28 33
-20 20 7 27 27 20 53 -8 30 -21 26 -15 -5z"/>
<path d="M764 1075 c-9 -23 3 -45 25 -45 20 0 37 32 26 50 -9 15 -45 12 -51
-5z"/>
<path d="M872 1078 c-7 -7 -12 -18 -12 -25 0 -15 30 -32 48 -26 17 7 15 50 -4
57 -20 8 -18 8 -32 -6z"/>
<path d="M7403 1083 c-18 -6 -16 -50 1 -56 8 -3 22 1 33 8 28 21 -1 62 -34 48z"/>
<path d="M7494 1075 c-4 -9 0 -23 9 -32 21 -21 49 -9 45 19 -4 28 -45 38 -54
13z"/>
<path d="M952 1038 c-16 -16 -15 -33 2 -47 18 -15 46 -4 46 18 0 17 -18 41
-30 41 -3 0 -11 -5 -18 -12z"/>
<path d="M7322 1038 c-16 -16 -15 -33 4 -48 22 -19 54 12 38 37 -14 22 -27 26
-42 11z"/>
<path d="M1004 966 c-10 -26 4 -48 28 -44 17 2 23 10 23 28 0 18 -6 26 -23 28
-13 2 -25 -3 -28 -12z"/>
<path d="M7254 966 c-10 -26 4 -48 28 -44 17 2 23 10 23 28 0 18 -6 26 -23 28
-13 2 -25 -3 -28 -12z"/>
<path d="M2057 488 c-21 -11 -22 -31 -3 -47 20 -16 46 -3 46 24 0 27 -19 37
-43 23z"/>
<path d="M6223 493 c-19 -7 -16 -50 4 -57 24 -10 51 20 37 41 -12 19 -23 24
-41 16z"/>
<path d="M891 456 c-12 -13 -24 -41 -26 -62 l-5 -39 9 34 c13 49 53 85 85 77
29 -7 46 -50 27 -69 -6 -6 -11 -16 -11 -21 0 -6 7 -2 15 8 49 65 -38 132 -94
72z"/>
<path d="M7327 462 c-10 -10 -17 -26 -17 -36 0 -24 18 -56 32 -56 6 0 3 9 -7
20 -24 27 -13 68 21 76 33 8 72 -28 84 -77 l8 -34 1 32 c2 69 -81 120 -122 75z"/>
<path d="M2277 416 c-14 -21 -14 -26 -2 -36 7 -6 15 -24 17 -38 2 -19 9 -27
22 -27 24 0 46 32 29 43 -6 4 -13 23 -15 42 -4 43 -29 51 -51 16z"/>
<path d="M6000 425 c-7 -8 -10 -24 -7 -35 3 -10 -1 -25 -9 -31 -12 -10 -12
-15 2 -30 21 -23 44 -25 44 -3 0 9 8 30 18 46 13 23 14 32 5 35 -7 3 -13 11
-13 19 0 18 -24 18 -40 -1z"/>
<path d="M2025 390 c-8 -26 6 -43 31 -38 13 2 19 12 19 28 0 34 -40 41 -50 10z"/>
<path d="M6234 396 c-10 -26 4 -48 28 -44 17 2 23 10 23 28 0 18 -6 26 -23 28
-13 2 -25 -3 -28 -12z"/>
<path d="M935 391 c-3 -5 -1 -12 5 -16 5 -3 10 1 10 9 0 18 -6 21 -15 7z"/>
<path d="M3226 393 c-11 -11 -6 -23 9 -23 8 0 15 4 15 9 0 13 -16 22 -24 14z"/>
<path d="M7360 384 c0 -8 5 -12 10 -9 6 4 8 11 5 16 -9 14 -15 11 -15 -7z"/>
<path d="M5075 380 c-3 -5 1 -10 9 -10 9 0 16 5 16 10 0 6 -4 10 -9 10 -6 0
-13 -4 -16 -10z"/>
<path d="M3190 366 c0 -9 7 -16 16 -16 9 0 14 5 12 12 -6 18 -28 21 -28 4z"/>
<path d="M5116 373 c-11 -11 -6 -23 9 -23 8 0 15 4 15 9 0 13 -16 22 -24 14z"/>
<path d="M3245 350 c-10 -11 -16 -22 -13 -25 3 -3 11 1 18 10 18 22 35 19 75
-17 29 -25 47 -32 88 -34 l52 -3 -48 9 c-31 5 -63 21 -92 44 -50 42 -56 43
-80 16z"/>
<path d="M5000 334 c-30 -28 -52 -38 -92 -44 l-53 -8 46 -1 c39 -1 53 5 90 34
51 40 76 44 89 13 l9 -23 0 22 c1 19 -24 43 -43 43 -3 0 -24 -16 -46 -36z"/>
<path d="M973 338 l22 -23 -23 -3 c-27 -4 -24 -27 4 -27 12 0 20 8 22 23 4 26
-13 52 -34 52 -9 0 -6 -8 9 -22z"/>
<path d="M7318 336 c-13 -30 -4 -59 19 -54 22 4 29 28 9 28 -21 0 -20 26 2 39
16 10 16 10 -1 11 -9 0 -22 -11 -29 -24z"/>
<path d="M1982 328 c-7 -7 -12 -18 -12 -25 0 -15 30 -32 48 -26 17 7 15 50 -4
57 -20 8 -18 8 -32 -6z"/>
<path d="M3172 328 c6 -18 28 -21 28 -4 0 9 -7 16 -16 16 -9 0 -14 -5 -12 -12z"/>
<path d="M4950 330 c0 -5 5 -10 10 -10 6 0 10 5 10 10 0 6 -4 10 -10 10 -5 0
-10 -4 -10 -10z"/>
<path d="M5122 328 c6 -18 28 -21 28 -4 0 9 -7 16 -16 16 -9 0 -14 -5 -12 -12z"/>
<path d="M6293 333 c-18 -6 -16 -50 1 -56 8 -3 22 1 33 8 28 21 -1 62 -34 48z"/>
<path d="M2253 306 c-13 -13 -20 -26 -16 -30 11 -11 23 -6 23 9 0 8 7 15 15
15 8 0 15 4 15 9 0 20 -16 19 -37 -3z"/>
<path d="M6040 310 c0 -5 7 -10 15 -10 8 0 15 5 15 10 0 6 -7 10 -15 10 -8 0
-15 -4 -15 -10z"/>
<path d="M3180 292 c0 -10 33 -42 43 -42 4 0 7 7 7 15 0 9 -6 12 -15 9 -11 -5
-13 -2 -9 10 4 11 1 16 -10 16 -9 0 -16 -4 -16 -8z"/>
<path d="M5120 284 c0 -9 5 -14 12 -12 18 6 21 28 4 28 -9 0 -16 -7 -16 -16z"/>
<path d="M6065 289 c-4 -6 -5 -13 -2 -16 7 -7 27 6 27 18 0 12 -17 12 -25 -2z"/>
<path d="M2380 255 c-49 -41 -54 -42 -74 -13 -11 16 -16 18 -16 7 0 -19 20
-39 38 -39 8 0 32 14 53 31 27 21 57 34 92 39 l52 8 -52 1 c-45 1 -56 -3 -93
-34z"/>
<path d="M5854 279 c46 -7 67 -16 91 -39 17 -16 39 -30 49 -30 11 0 25 -8 32
-17 7 -10 16 -14 21 -10 4 5 0 14 -9 21 -11 8 -14 17 -7 27 16 25 10 32 -9 9
-16 -20 -21 -21 -43 -10 -13 7 -37 24 -52 36 -23 19 -39 24 -80 23 l-52 -1 59
-9z"/>
<path d="M1886 264 c-9 -22 17 -49 39 -40 10 3 15 15 13 28 -4 29 -42 37 -52
12z"/>
<path d="M5090 271 c0 -6 -8 -11 -19 -11 -26 0 -48 -27 -33 -42 7 -7 12 -24
12 -39 0 -15 7 -33 16 -40 14 -11 18 -10 30 6 16 22 19 55 4 55 -5 0 -10 11
-10 25 0 16 6 25 16 25 9 0 14 5 12 12 -5 15 -28 23 -28 9z"/>
<path d="M6374 265 c-8 -21 2 -45 19 -45 21 0 38 25 31 44 -8 20 -43 21 -50 1z"/>
<path d="M2230 245 c0 -9 6 -12 15 -9 8 4 12 10 9 15 -8 14 -24 10 -24 -6z"/>
<path d="M3240 242 c0 -10 -7 -27 -15 -38 -12 -18 -12 -26 -2 -48 7 -14 17
-26 23 -26 19 0 37 29 31 50 -3 10 1 24 9 31 10 8 11 16 3 30 -13 24 -49 25
-49 1z"/>
<path d="M6072 251 c4 -13 18 -16 19 -4 0 4 -5 9 -11 12 -7 2 -11 -2 -8 -8z"/>
<path d="M2405 240 c-3 -5 1 -10 9 -10 9 0 16 5 16 10 0 6 -4 10 -9 10 -6 0
-13 -4 -16 -10z"/>
<path d="M3090 240 c0 -5 5 -10 10 -10 6 0 10 5 10 10 0 6 -4 10 -10 10 -5 0
-10 -4 -10 -10z"/>
<path d="M5900 240 c0 -6 7 -10 15 -10 8 0 15 2 15 4 0 2 -7 6 -15 10 -8 3
-15 1 -15 -4z"/>
<path d="M2240 210 c0 -5 7 -10 15 -10 8 0 15 5 15 10 0 6 -7 10 -15 10 -8 0
-15 -4 -15 -10z"/>
<path d="M3075 209 c-4 -6 -13 -8 -21 -5 -8 3 -14 1 -14 -4 0 -15 30 -12 46 5
9 8 11 15 5 15 -5 0 -13 -5 -16 -11z"/>
<path d="M6050 210 c0 -5 7 -10 15 -10 8 0 15 5 15 10 0 6 -7 10 -15 10 -8 0
-15 -4 -15 -10z"/>
<path d="M2280 195 c0 -9 5 -15 11 -13 6 2 11 8 11 13 0 5 -5 11 -11 13 -6 2
-11 -4 -11 -13z"/>
<path d="M5245 200 c-3 -5 -1 -10 4 -10 6 0 11 5 11 10 0 6 -2 10 -4 10 -3 0
-8 -4 -11 -10z"/>
</g>
</svg>
